<svg width="46" height="46" viewBox="0 0 46 46" fill="none" xmlns="http://www.w3.org/2000/svg">
<rect x="1" y="1" width="44" height="44" rx="22" fill="white"/>
<rect x="1" y="1" width="44" height="44" rx="22" stroke="#E7E7E7"/>
<path d="M21.5 18.5C21.5 16.8431 20.1569 15.5 18.5 15.5C16.8431 15.5 15.5 16.8431 15.5 18.5C15.5 20.1569 16.8431 21.5 18.5 21.5C20.1569 21.5 21.5 20.1569 21.5 18.5Z" stroke="#6D6D6D" stroke-width="1.125"/>
<path d="M21.5 27.5C21.5 25.8432 20.1569 24.5 18.5 24.5C16.8431 24.5 15.5 25.8432 15.5 27.5C15.5 29.1568 16.8431 30.5 18.5 30.5C20.1569 30.5 21.5 29.1568 21.5 27.5Z" stroke="#6D6D6D" stroke-width="1.125"/>
<path d="M30.5 18.5C30.5 16.8431 29.1568 15.5 27.5 15.5C25.8432 15.5 24.5 16.8431 24.5 18.5C24.5 20.1569 25.8432 21.5 27.5 21.5C29.1568 21.5 30.5 20.1569 30.5 18.5Z" stroke="#6D6D6D" stroke-width="1.125"/>
<path d="M30.5 27.5C30.5 25.8432 29.1568 24.5 27.5 24.5C25.8432 24.5 24.5 25.8432 24.5 27.5C24.5 29.1568 25.8432 30.5 27.5 30.5C29.1568 30.5 30.5 29.1568 30.5 27.5Z" stroke="#6D6D6D" stroke-width="1.125"/>
</svg>
