<svg width="19" height="19" viewBox="0 0 19 19" fill="none" xmlns="http://www.w3.org/2000/svg">
<path d="M6.33325 5.75H12.3333" stroke="#5D5D5D" stroke-width="1.2" stroke-linecap="round" stroke-linejoin="round"/>
<path d="M6.33325 8.75H9.33325" stroke="#5D5D5D" stroke-width="1.2" stroke-linecap="round" stroke-linejoin="round"/>
<path d="M10.0833 16.625V16.25C10.0833 14.1287 10.0833 13.0681 10.7423 12.409C11.4013 11.75 12.462 11.75 14.5833 11.75H14.9583M15.3333 10.5073V8C15.3333 5.17157 15.3333 3.75736 14.4546 2.87868C13.5759 2 12.1617 2 9.33325 2C6.50483 2 5.09061 2 4.21193 2.87868C3.33325 3.75736 3.33325 5.17157 3.33325 8V11.4081C3.33325 13.8419 3.33325 15.0588 3.9978 15.883C4.13206 16.0495 4.28373 16.2012 4.45025 16.3354C5.27448 17 6.49137 17 8.9251 17C9.4543 17 9.71883 17 9.96115 16.9145C10.0116 16.8967 10.0609 16.8763 10.1091 16.8532C10.341 16.7423 10.528 16.5553 10.9022 16.1811L14.4546 12.6287C14.8881 12.1951 15.1049 11.9784 15.2191 11.7027C15.3333 11.4271 15.3333 11.1204 15.3333 10.5073Z" stroke="#5D5D5D" stroke-width="1.2" stroke-linecap="round" stroke-linejoin="round"/>
</svg>
