<svg width="24" height="24" viewBox="0 0 24 24" fill="none" xmlns="http://www.w3.org/2000/svg">
<path opacity="0.3" d="M3.5 9.36842C3.5 5.89491 3.5 4.15816 4.52513 3.07908C5.55025 2 7.20017 2 10.5 2H13.5C16.7998 2 18.4497 2 19.4749 3.07908C20.5 4.15816 20.5 5.89491 20.5 9.36842V14.6316C20.5 18.1051 20.5 19.8418 19.4749 20.9209C18.4497 22 16.7998 22 13.5 22H10.5C7.20017 22 5.55025 22 4.52513 20.9209C3.5 19.8418 3.5 18.1051 3.5 14.6316V9.36842Z" fill="#0A65FC"/>
<path d="M8 16H12M8 11H16" stroke="#0A65FC" stroke-width="1.5" stroke-linecap="round"/>
<rect x="7.65454" y="0.742554" width="8.69104" height="2.93839" rx="1.46919" fill="#0A65FC"/>
</svg>
