<svg width="161" height="60" viewBox="0 0 161 60" fill="none" xmlns="http://www.w3.org/2000/svg">
<g clip-path="url(#clip0_3_9065)">
<path d="M13.0358 29.3058C15.3329 29.3058 17.111 28.9139 18.3701 28.1299C19.6292 27.346 20.2577 26.2161 20.2577 24.7401C20.2577 23.665 19.9117 22.7869 19.2176 22.1102C18.5234 21.4336 17.6168 20.9474 16.4935 20.654C15.3723 20.3584 14.1657 20.0409 12.8781 19.7037C11.5884 19.3642 10.2701 19.0182 8.9212 18.6613C7.5723 18.3066 6.34602 17.8204 5.24456 17.2051C4.1431 16.5898 3.24529 15.6657 2.55332 14.4328C1.86135 13.2022 1.51536 11.6934 1.51536 9.90657C1.51536 7.19781 2.60806 4.90292 4.79565 3.02409C6.98324 1.14526 9.88689 0.205841 13.5066 0.205841C17.3146 0.205841 20.2818 1.21533 22.4059 3.23212C24.53 5.24891 25.6248 7.85913 25.6862 11.0606H20.0672C20.0365 9.36789 19.454 7.973 18.3197 6.8803C17.1876 5.7876 15.5803 5.24015 13.5044 5.24015C11.4285 5.24015 9.9701 5.62993 8.85332 6.41168C7.73653 7.19343 7.17813 8.30146 7.17813 9.74015C7.17813 10.6883 7.52631 11.4766 8.22266 12.1029C8.91901 12.7314 9.82996 13.1912 10.9511 13.4869C12.0745 13.7825 13.2964 14.1022 14.6168 14.4504C15.9373 14.7985 17.273 15.1489 18.6219 15.5036C19.973 15.8584 21.2037 16.3686 22.3183 17.0365C23.4329 17.7044 24.3351 18.6657 25.0248 19.9204C25.7146 21.1752 26.0606 22.7037 26.0606 24.5015C26.0606 27.4883 24.8475 29.8752 22.4256 31.6599C20.0015 33.4467 16.7759 34.338 12.7467 34.338C8.71755 34.338 5.52266 33.2759 3.44675 31.1518C1.36865 29.0277 0.282515 26.4569 0.188354 23.4372H5.85332C5.97813 25.2547 6.65697 26.6869 7.88324 27.7336C9.11171 28.7803 10.8263 29.3037 13.0292 29.3037L13.0358 29.3058Z" fill="#0A0A0A"/>
<path d="M113.196 19.0927V34.3161H107.118V18.4292C107.118 14.411 105.449 12.4007 102.112 12.4007C100.305 12.4007 98.8686 12.981 97.7956 14.1372C96.7226 15.2956 96.1861 16.8788 96.1861 18.8891V34.3161H90.1073V7.8044H95.7263V11.3299C96.3723 10.1387 97.362 9.15111 98.6891 8.36716C100.018 7.58322 101.669 7.19125 103.645 7.19125C107.323 7.19125 109.98 8.58833 111.613 11.3803C113.86 8.58833 116.858 7.19125 120.604 7.19125C123.703 7.19125 126.088 8.15476 127.756 10.0774C129.425 12.0022 130.259 14.5314 130.259 17.6628V34.3161H124.18V18.4292C124.18 14.411 122.512 12.4007 119.174 12.4007C117.335 12.4007 115.879 12.9876 114.806 14.1635C113.733 15.3394 113.196 16.9818 113.196 19.0927Z" fill="#0A0A0A"/>
<path d="M155.021 7.73869H160.537V33.7139H155.021V30.0022C153.25 32.8774 150.324 34.3139 146.245 34.3139C142.533 34.3139 139.601 33.0175 137.444 30.427C135.287 27.8365 134.209 24.6022 134.209 20.7241C134.209 16.846 135.287 13.6117 137.444 11.0212C139.601 8.43066 142.533 7.13431 146.245 7.13431C150.322 7.13431 153.247 8.57299 155.021 11.446V7.73431V7.73869ZM142.185 14.7832C140.847 16.3708 140.179 18.3526 140.179 20.7263C140.179 23.1 140.847 25.0818 142.185 26.6693C143.52 28.2569 145.294 29.0518 147.499 29.0518C149.704 29.0518 151.52 28.2679 152.84 26.6956C154.161 25.1256 154.822 23.135 154.822 20.7285C154.822 18.3219 154.161 16.3336 152.84 14.7613C151.52 13.1912 149.739 12.4051 147.499 12.4051C145.259 12.4051 143.52 13.2 142.185 14.7876V14.7832Z" fill="#0A0A0A"/>
<path d="M106.513 48.0745C105.622 48.0745 104.95 47.8664 104.501 47.4482C104.05 47.0321 103.804 46.4978 103.763 45.8475H105.202C105.219 46.1475 105.348 46.3905 105.589 46.5723C105.83 46.7562 106.169 46.8482 106.603 46.8482C106.986 46.8482 107.282 46.7825 107.49 46.6489C107.698 46.5153 107.803 46.3358 107.803 46.1102C107.803 45.8606 107.676 45.6745 107.422 45.554C107.168 45.4336 106.859 45.335 106.496 45.2584C106.132 45.1818 105.766 45.1051 105.394 45.0263C105.024 44.9475 104.711 44.7679 104.457 44.4832C104.203 44.2007 104.076 43.8132 104.076 43.3205C104.076 42.7533 104.312 42.2715 104.783 41.8752C105.254 41.4788 105.878 41.2818 106.653 41.2818C107.096 41.2818 107.485 41.3497 107.823 41.4876C108.16 41.6256 108.423 41.8073 108.611 42.0307C108.799 42.2562 108.939 42.4861 109.036 42.7183C109.132 42.9526 109.187 43.1891 109.204 43.4321H107.779C107.755 43.1737 107.643 42.9526 107.448 42.7686C107.251 42.5847 106.975 42.4927 106.616 42.4927C106.257 42.4927 105.983 42.5584 105.791 42.692C105.598 42.8256 105.504 43.0073 105.504 43.2416C105.504 43.4584 105.633 43.6248 105.891 43.7365C106.15 43.8482 106.458 43.9467 106.822 44.0256C107.185 44.1066 107.551 44.1876 107.923 44.2686C108.293 44.3518 108.604 44.5423 108.856 44.8445C109.108 45.1467 109.233 45.5453 109.233 46.0445C109.233 46.6292 108.996 47.111 108.526 47.4942C108.055 47.8774 107.385 48.0701 106.518 48.0701L106.513 48.0745Z" fill="#0A0A0A"/>
<path d="M115.509 43.5745L115.474 48.0745H113.985L114.02 43.5745H113.032V42.3854H114.02V40.6971H115.509V42.3854H116.597V43.5745H115.509Z" fill="#0A0A0A"/>
<path d="M133.253 42.2847V38.965H134.742V48.1073H133.366V46.9993C132.924 47.7153 132.195 48.0744 131.179 48.0744C130.253 48.0744 129.521 47.7504 128.985 47.1044C128.446 46.4584 128.179 45.6526 128.179 44.6847C128.179 43.7168 128.448 42.9088 128.985 42.2584C129.521 41.608 130.255 41.2839 131.179 41.2839C132.103 41.2839 132.812 41.6168 133.255 42.2847H133.253ZM133.316 44.6869C133.316 44.0781 133.152 43.5788 132.821 43.1869C132.493 42.7949 132.048 42.6 131.49 42.6C130.931 42.6 130.498 42.7971 130.165 43.1869C129.832 43.5788 129.666 44.0781 129.666 44.6869C129.666 45.2956 129.832 45.773 130.165 46.1694C130.498 46.5657 130.94 46.7628 131.49 46.7628C132.039 46.7628 132.493 46.5679 132.821 46.1759C133.15 45.7839 133.316 45.2869 133.316 44.6869Z" fill="#0A0A0A"/>
<path d="M139.785 40.8153C139.509 40.8153 139.285 40.7299 139.11 40.5591C138.935 40.3883 138.847 40.1693 138.847 39.9022C138.847 39.635 138.935 39.4029 139.11 39.2277C139.285 39.0526 139.511 38.965 139.785 38.965C140.058 38.965 140.273 39.0526 140.448 39.2277C140.623 39.4029 140.711 39.6285 140.711 39.9022C140.711 40.1759 140.623 40.3883 140.448 40.5591C140.273 40.7299 140.052 40.8153 139.785 40.8153ZM139.034 48.1073V41.5204H140.523V48.1073H139.034Z" fill="#0A0A0A"/>
<path d="M148.095 48.0745C147.094 48.0745 146.284 47.746 145.662 47.0869C145.04 46.4277 144.731 45.6285 144.731 44.6869C144.731 43.7453 145.042 42.9416 145.662 42.2803C146.284 41.6168 147.094 41.2861 148.095 41.2861C149.096 41.2861 149.919 41.6168 150.541 42.2803C151.163 42.9438 151.472 43.7453 151.472 44.6869C151.472 45.6285 151.161 46.4299 150.541 47.0869C149.919 47.746 149.104 48.0745 148.095 48.0745ZM146.218 44.6847C146.218 45.3022 146.396 45.8015 146.75 46.1847C147.105 46.5679 147.552 46.7606 148.095 46.7606C148.638 46.7606 149.098 46.5701 149.453 46.1847C149.807 45.8015 149.985 45.3 149.985 44.6847C149.985 44.0693 149.807 43.5548 149.453 43.1715C149.098 42.7883 148.647 42.5956 148.095 42.5956C147.543 42.5956 147.105 42.7883 146.75 43.1715C146.396 43.5548 146.218 44.0584 146.218 44.6847Z" fill="#0A0A0A"/>
<path d="M126.591 44.9934C126.412 46.7431 124.934 48.1051 123.138 48.1051C121.342 48.1051 119.864 46.7409 119.685 44.9934H119.733C120.355 44.9934 120.915 45.3285 121.253 45.8497C121.651 46.4672 122.347 46.8767 123.138 46.8767C123.928 46.8767 124.625 46.4672 125.023 45.8497C125.361 45.3285 125.921 44.9934 126.543 44.9934H126.591Z" fill="#0A0A0A"/>
<path d="M32.7198 6.9C31.7059 6.9 30.8759 6.59124 30.23 5.97372C29.584 5.3562 29.2621 4.5635 29.2621 3.59781C29.2621 2.63212 29.584 1.78905 30.23 1.15621C30.8759 0.523358 31.7059 0.205841 32.7198 0.205841C33.7336 0.205841 34.5176 0.523358 35.1635 1.15621C35.8095 1.78905 36.1314 2.60365 36.1314 3.59781C36.1314 4.59197 35.8095 5.3562 35.1635 5.97372C34.5176 6.59124 33.703 6.9 32.7198 6.9ZM29.9541 34.3117V9.4511H35.4416V34.3117H29.9541Z" fill="#0A0A0A"/>
<path d="M89.8774 0.100739C89.8774 4.20877 86.5489 7.53724 82.4409 7.53724H78.23C74.4592 2.99344 68.7679 0.100739 62.4022 0.100739H89.8752H89.8774Z" fill="url(#paint0_linear_3_9065)"/>
<path opacity="0.21" d="M62.4022 0.100737C62.4022 0.100737 74.503 -0.332834 79.6205 7.53724L75.3482 7.71461L62.4022 0.100737Z" fill="#0A0A0A"/>
<path d="M78.23 7.53504C74.4592 2.99124 68.768 0.0985413 62.4023 0.0985413C56.0366 0.0985413 50.3475 2.99124 46.5745 7.53504C43.6205 11.0956 41.8424 15.6701 41.8424 20.6584C41.8424 32.0124 51.0461 41.2182 62.4023 41.2182C73.7585 41.2182 82.9621 32.0146 82.9621 20.6584C82.9621 15.6701 81.184 11.0956 78.23 7.53504ZM62.4023 33.946C55.0643 33.946 49.1147 27.9963 49.1147 20.6584C49.1147 14.0321 53.9672 8.53796 60.3132 7.53504C60.9942 7.42774 61.6906 7.3708 62.4023 7.3708C63.1139 7.3708 63.8103 7.42555 64.4913 7.53504C70.8373 8.53577 75.6899 14.0299 75.6899 20.6584C75.6899 27.9963 69.7402 33.946 62.4023 33.946Z" fill="url(#paint1_linear_3_9065)"/>
<path d="M83.3717 41.2818C82.2921 51.7445 73.452 59.9037 62.7045 59.9037C51.9571 59.9037 43.1169 51.7445 42.0374 41.2818C45.8476 41.2818 49.3644 43.2438 51.4403 46.4387C53.8337 50.1197 57.9855 52.5548 62.7045 52.5548C67.4235 52.5548 71.5753 50.1197 73.9687 46.4387C76.0447 43.246 79.5614 41.2818 83.3717 41.2818Z" fill="url(#paint2_linear_3_9065)"/>
</g>
<defs>
<linearGradient id="paint0_linear_3_9065" x1="62.4029" y1="3.8189" x2="89.8774" y2="3.8189" gradientUnits="userSpaceOnUse">
<stop stop-color="#0D54E8"/>
<stop offset="0.21" stop-color="#0A65FC"/>
<stop offset="0.6" stop-color="#2B8BFF"/>
<stop offset="1" stop-color="#53AFFF"/>
</linearGradient>
<linearGradient id="paint1_linear_3_9065" x1="41.8434" y1="20.6579" x2="82.9621" y2="20.6579" gradientUnits="userSpaceOnUse">
<stop stop-color="#53AFFF"/>
<stop offset="0.4" stop-color="#2B8BFF"/>
<stop offset="0.79" stop-color="#0A65FC"/>
<stop offset="1" stop-color="#0D54E8"/>
</linearGradient>
<linearGradient id="paint2_linear_3_9065" x1="40.7563" y1="53.9584" x2="82.1454" y2="43.2044" gradientUnits="userSpaceOnUse">
<stop stop-color="#FFD833"/>
<stop offset="0.42" stop-color="#FFA826"/>
<stop offset="0.8" stop-color="#FF831D"/>
<stop offset="1" stop-color="#FF761A"/>
</linearGradient>
<clipPath id="clip0_3_9065">
<rect width="160.73" height="60" fill="white"/>
</clipPath>
</defs>
</svg>
