<svg width="24" height="24" viewBox="0 0 24 24" fill="none" xmlns="http://www.w3.org/2000/svg">
<path d="M11.2695 2.58168C11.6647 2.15878 12.3354 2.15878 12.7306 2.58168L14.6173 4.60035C14.8145 4.81128 15.0931 4.92671 15.3817 4.91696L18.1432 4.82364C18.7217 4.80409 19.196 5.27831 19.1764 5.85684L19.0831 8.61835C19.0733 8.9069 19.1888 9.18557 19.3997 9.38271L21.4184 11.2694C21.8413 11.6647 21.8413 12.3353 21.4184 12.7306L19.3997 14.6173C19.1888 14.8144 19.0733 15.0931 19.0831 15.3816L19.1764 18.1431C19.196 18.7217 18.7217 19.1959 18.1432 19.1763L15.3817 19.083C15.0931 19.0733 14.8145 19.1887 14.6173 19.3996L12.7306 21.4183C12.3354 21.8412 11.6647 21.8412 11.2695 21.4183L9.38277 19.3996C9.18564 19.1887 8.90696 19.0733 8.61841 19.083L5.8569 19.1763C5.27837 19.1959 4.80415 18.7217 4.8237 18.1431L4.91702 15.3816C4.92677 15.0931 4.81134 14.8144 4.60041 14.6173L2.58174 12.7306C2.15884 12.3353 2.15884 11.6647 2.58174 11.2694L4.60041 9.38271C4.81134 9.18557 4.92677 8.90689 4.91702 8.61835L4.8237 5.85684C4.80415 5.27831 5.27837 4.80409 5.8569 4.82364L8.61841 4.91696C8.90696 4.92671 9.18564 4.81128 9.38277 4.60035L11.2695 2.58168Z" stroke="#5D5D5D"/>
<path d="M14.5 13.5C14.4984 14.0299 14.2872 14.5377 13.9125 14.9125C13.5377 15.2872 13.0299 15.4984 12.5 15.5V16.51C12.4974 16.6409 12.4436 16.7655 12.3501 16.8571C12.2566 16.9487 12.1309 17 12 17C11.9348 17.0013 11.87 16.9896 11.8094 16.9656C11.7488 16.9416 11.6936 16.9057 11.647 16.8601C11.6005 16.8144 11.5635 16.76 11.5382 16.6999C11.513 16.6397 11.5 16.5752 11.5 16.51V15.5H10.25C10.1174 15.5 9.99021 15.4473 9.89645 15.3536C9.80268 15.2598 9.75 15.1326 9.75 15C9.75 14.8674 9.80268 14.7402 9.89645 14.6464C9.99021 14.5527 10.1174 14.5 10.25 14.5H12.5C12.7652 14.5 13.0196 14.3946 13.2071 14.2071C13.3946 14.0196 13.5 13.7652 13.5 13.5C13.5 13.2348 13.3946 12.9804 13.2071 12.7929C13.0196 12.6054 12.7652 12.5 12.5 12.5H11.5C10.9696 12.5 10.4609 12.2893 10.0858 11.9142C9.71071 11.5391 9.5 11.0304 9.5 10.5C9.5 9.96957 9.71071 9.46086 10.0858 9.08579C10.4609 8.71071 10.9696 8.5 11.5 8.5V7.453C11.5026 7.39025 11.5176 7.32863 11.5442 7.27174C11.5708 7.21486 11.6085 7.16384 11.655 7.12168C11.7016 7.07951 11.756 7.04703 11.8153 7.02614C11.8745 7.00525 11.9373 6.99636 12 7C12.1257 6.99452 12.2485 7.0386 12.342 7.12276C12.4355 7.20692 12.4923 7.32443 12.5 7.45V8.5H13.75C13.8826 8.5 14.0098 8.55268 14.1036 8.64645C14.1973 8.74021 14.25 8.86739 14.25 9C14.2474 9.13181 14.1939 9.2575 14.1007 9.35072C14.0075 9.44394 13.8818 9.49744 13.75 9.5H11.5C11.2348 9.5 10.9804 9.60536 10.7929 9.79289C10.6054 9.98043 10.5 10.2348 10.5 10.5C10.5 10.7652 10.6054 11.0196 10.7929 11.2071C10.9804 11.3946 11.2348 11.5 11.5 11.5H12.5C13.0304 11.5 13.5391 11.7107 13.9142 12.0858C14.2893 12.4609 14.5 12.9696 14.5 13.5Z" fill="#5D5D5D"/>
</svg>
