<svg width="24" height="24" viewBox="0 0 24 24" fill="none" xmlns="http://www.w3.org/2000/svg">
<path opacity="0.3" d="M11.2694 4.28169C11.6647 3.85879 12.3353 3.85879 12.7306 4.28169L14.1294 5.77831C14.3265 5.98924 14.6052 6.10467 14.8937 6.09492L16.9411 6.02573C17.5196 6.00618 17.9938 6.48041 17.9743 7.05894L17.9051 9.10628C17.8953 9.39483 18.0108 9.67351 18.2217 9.87065L19.7183 11.2694C20.1412 11.6647 20.1412 12.3353 19.7183 12.7306L18.2217 14.1294C18.0108 14.3265 17.8953 14.6052 17.9051 14.8937L17.9743 16.9411C17.9938 17.5196 17.5196 17.9938 16.9411 17.9743L14.8937 17.9051C14.6052 17.8953 14.3265 18.0108 14.1294 18.2217L12.7306 19.7183C12.3353 20.1412 11.6647 20.1412 11.2694 19.7183L9.87065 18.2217C9.67351 18.0108 9.39483 17.8953 9.10628 17.9051L7.05894 17.9743C6.48041 17.9938 6.00618 17.5196 6.02573 16.9411L6.09492 14.8937C6.10467 14.6052 5.98924 14.3265 5.77831 14.1294L4.28169 12.7306C3.85879 12.3353 3.85879 11.6647 4.28169 11.2694L5.77831 9.87065C5.98924 9.67351 6.10467 9.39483 6.09492 9.10628L6.02573 7.05894C6.00618 6.48041 6.48041 6.00618 7.05894 6.02573L9.10628 6.09492C9.39483 6.10467 9.67351 5.98924 9.87065 5.77831L11.2694 4.28169Z" fill="#0A65FC"/>
<path d="M14.5 13.5C14.4984 14.0299 14.2872 14.5377 13.9125 14.9125C13.5377 15.2872 13.0299 15.4984 12.5 15.5V16.51C12.4974 16.6409 12.4436 16.7655 12.3501 16.8571C12.2566 16.9487 12.1309 17 12 17C11.9348 17.0013 11.87 16.9896 11.8094 16.9656C11.7488 16.9416 11.6936 16.9057 11.647 16.8601C11.6005 16.8144 11.5635 16.76 11.5382 16.6999C11.513 16.6397 11.5 16.5752 11.5 16.51V15.5H10.25C10.1174 15.5 9.99021 15.4473 9.89645 15.3536C9.80268 15.2598 9.75 15.1326 9.75 15C9.75 14.8674 9.80268 14.7402 9.89645 14.6464C9.99021 14.5527 10.1174 14.5 10.25 14.5H12.5C12.7652 14.5 13.0196 14.3946 13.2071 14.2071C13.3946 14.0196 13.5 13.7652 13.5 13.5C13.5 13.2348 13.3946 12.9804 13.2071 12.7929C13.0196 12.6054 12.7652 12.5 12.5 12.5H11.5C10.9696 12.5 10.4609 12.2893 10.0858 11.9142C9.71071 11.5391 9.5 11.0304 9.5 10.5C9.5 9.96957 9.71071 9.46086 10.0858 9.08579C10.4609 8.71071 10.9696 8.5 11.5 8.5V7.453C11.5026 7.39025 11.5176 7.32863 11.5442 7.27174C11.5708 7.21486 11.6085 7.16384 11.655 7.12168C11.7016 7.07951 11.756 7.04703 11.8153 7.02614C11.8745 7.00525 11.9373 6.99636 12 7C12.1257 6.99452 12.2485 7.0386 12.342 7.12276C12.4355 7.20692 12.4923 7.32443 12.5 7.45V8.5H13.75C13.8826 8.5 14.0098 8.55268 14.1036 8.64645C14.1973 8.74021 14.25 8.86739 14.25 9C14.2474 9.13181 14.1939 9.2575 14.1007 9.35072C14.0075 9.44394 13.8818 9.49744 13.75 9.5H11.5C11.2348 9.5 10.9804 9.60536 10.7929 9.79289C10.6054 9.98043 10.5 10.2348 10.5 10.5C10.5 10.7652 10.6054 11.0196 10.7929 11.2071C10.9804 11.3946 11.2348 11.5 11.5 11.5H12.5C13.0304 11.5 13.5391 11.7107 13.9142 12.0858C14.2893 12.4609 14.5 12.9696 14.5 13.5Z" fill="#0A65FC"/>
</svg>
