<svg width="24" height="24" viewBox="0 0 24 24" fill="none" xmlns="http://www.w3.org/2000/svg">
<path d="M17 12C17 14.7614 14.7614 17 12 17C9.23858 17 7 14.7614 7 12C7 9.23858 9.23858 7 12 7" stroke="#5D5D5D" stroke-width="1.5" stroke-linecap="round"/>
<path d="M14 2.20004C13.3538 2.06886 12.6849 2 12 2C6.47715 2 2 6.47715 2 12C2 17.5228 6.47715 22 12 22C17.5228 22 22 17.5228 22 12C22 11.3151 21.9311 10.6462 21.8 10" stroke="#5D5D5D" stroke-width="1.5" stroke-linecap="round"/>
<path d="M12.0303 11.9624L16.5832 7.40949M19.7404 4.34451L19.1872 2.35737C19.0853 2.03 18.6914 1.89954 18.4259 2.11651C16.9898 3.29007 15.4254 4.8708 16.703 7.36408C19.2771 8.56443 20.7466 6.94573 21.8733 5.58519C22.0975 5.31449 21.9623 4.90756 21.6247 4.80994L19.7404 4.34451Z" stroke="#5D5D5D" stroke-width="1.5" stroke-linecap="round" stroke-linejoin="round"/>
</svg>
