<svg width="24" height="24" viewBox="0 0 24 24" fill="none" xmlns="http://www.w3.org/2000/svg">
<path d="M12.0303 11.9624L16.5832 7.40949L12.0303 11.9624ZM19.7404 4.34451L19.1872 2.35737C19.0853 2.03 18.6914 1.89954 18.4259 2.11651C16.9898 3.29007 15.4254 4.8708 16.703 7.36408C19.2771 8.56443 20.7466 6.94573 21.8733 5.58519C22.0975 5.31449 21.9623 4.90756 21.6247 4.80994L19.7404 4.34451Z" fill="#0A65FC"/>
<path d="M12.0303 11.9624L16.5832 7.40949M19.7404 4.34451L19.1872 2.35737C19.0853 2.03 18.6914 1.89954 18.4259 2.11651C16.9898 3.29007 15.4254 4.8708 16.703 7.36408C19.2771 8.56443 20.7466 6.94573 21.8733 5.58519C22.0975 5.31449 21.9623 4.90756 21.6247 4.80994L19.7404 4.34451Z" stroke="#0A65FC" stroke-width="1.5" stroke-linecap="round" stroke-linejoin="round"/>
<circle opacity="0.3" cx="12" cy="12" r="10.7986" fill="#0A65FC"/>
<circle opacity="0.3" cx="12" cy="12" r="5.21704" fill="#0A65FC"/>
</svg>
