<?xml version="1.0" encoding="UTF-8"?>
<svg id="Layer_2" data-name="Layer 2" xmlns="http://www.w3.org/2000/svg" xmlns:xlink="http://www.w3.org/1999/xlink" viewBox="0 0 1014.69 142.04">
  <defs>
    <style>
      .cls-1 {
        fill: url(#linear-gradient);
      }

      .cls-1, .cls-2, .cls-3 {
        stroke-width: 0px;
      }

      .cls-2 {
        fill: #0a65fc;
      }

      .cls-3 {
        fill: #191919;
      }
    </style>
    <linearGradient id="linear-gradient" x1="128.76" y1="78.89" x2="96.56" y2="116.97" gradientUnits="userSpaceOnUse">
      <stop offset="0" stop-color="#0a65fc" stop-opacity="0"/>
      <stop offset="1" stop-color="#0a65fc"/>
    </linearGradient>
  </defs>
  <g id="Layer_1-2" data-name="Layer 1">
    <g>
      <g>
        <path class="cls-3" d="m181.17,46.73h8.73v-19.88h19.42v19.88h16.26v16.26h-16.11v30.11c0,1.91.35,3.24,1.05,3.99.7.75,1.96,1.13,3.76,1.13h11.29v16.26h-11.29c-9.33,0-15.73-1.4-19.2-4.22-3.46-2.81-5.2-8.53-5.2-17.16v-30.11h-8.73v-16.26Z"/>
        <path class="cls-3" d="m231.61,17.67h19.42v37.34c4.52-6.42,11.04-9.69,19.57-9.79h1.2c11.04,0,18.82,2.89,23.34,8.66,4.52,5.77,6.78,14.13,6.78,25.07v35.53h-19.42v-35.53c0-12.15-4.52-18.27-13.55-18.37h-.45c-6.02,0-10.44,1.98-13.25,5.95-2.81,3.97-4.22,9.61-4.22,16.94v31.01h-19.42V17.67Z"/>
        <path class="cls-3" d="m318.19,55.01c6.42-6.53,15.26-9.79,26.5-9.79s19.65,3.24,25.82,9.71c6.18,6.48,9.26,15.08,9.26,25.82,0,1.81-.1,3.66-.3,5.57h-51.95c.4,4.42,2.23,7.93,5.5,10.54,3.26,2.61,7.25,3.91,11.97,3.91,2.21,0,4.19-.25,5.95-.75,1.75-.5,3.11-1.08,4.07-1.73.95-.65,1.75-1.33,2.41-2.03s1.08-1.3,1.28-1.81l.3-.75h19.42c-.1.6-.33,1.41-.68,2.41s-1.3,2.78-2.86,5.35c-1.55,2.56-3.44,4.82-5.64,6.77-2.21,1.96-5.47,3.74-9.79,5.35-4.32,1.6-9.18,2.41-14.6,2.41-10.84,0-19.6-3.19-26.27-9.56-6.68-6.38-10.01-14.93-10.01-25.67s3.21-19.12,9.63-25.75Zm42.76,18.37v-.45c0-3.81-1.51-6.85-4.52-9.11-3.01-2.26-6.87-3.39-11.59-3.39s-8.76,1.2-11.82,3.61-4.89,5.52-5.5,9.33h33.43Z"/>
        <path class="cls-3" d="m396.03,55.31c6.82-6.72,16.21-10.09,28.16-10.09s21.35,3.37,28.23,10.09c6.87,6.73,10.31,15.16,10.31,25.29s-3.41,18.67-10.24,25.29c-6.93,6.73-16.37,10.09-28.31,10.09s-21.36-3.39-28.23-10.16c-6.87-6.78-10.31-15.18-10.31-25.22s3.46-18.57,10.39-25.29Zm9.33,25.29c0,5.82,1.6,10.64,4.82,14.46s7.88,5.72,14,5.72,10.66-1.93,13.93-5.8c3.26-3.86,4.89-8.66,4.89-14.38,0-6.02-1.6-10.89-4.82-14.61-3.21-3.71-7.88-5.57-14-5.57s-10.79,1.86-14,5.57c-3.21,3.72-4.82,8.59-4.82,14.61Z"/>
        <path class="cls-3" d="m467.09,46.73h18.97v10.09c4.01-6.72,10.09-10.09,18.22-10.09h7.98v16.26h-7.53c-7.93,0-12.95,1.93-15.06,5.8-2.11,3.86-3.16,12.22-3.16,25.07v20.63h-19.42V46.73Z"/>
        <path class="cls-3" d="m516.48,27.91c0-3.31,1.13-6.12,3.39-8.43,2.26-2.31,4.99-3.46,8.2-3.46s6.12,1.16,8.43,3.46c2.31,2.31,3.46,5.12,3.46,8.43s-1.15,5.95-3.46,8.21c-2.31,2.26-5.12,3.39-8.43,3.39-3.11,0-5.82-1.15-8.13-3.46-2.31-2.31-3.46-5.02-3.46-8.13Zm21.38,18.82v67.75h-19.27V46.73h19.27Z"/>
        <path class="cls-3" d="m553.97,55.01c6.42-6.53,15.25-9.79,26.5-9.79s19.65,3.24,25.82,9.71c6.17,6.48,9.26,15.08,9.26,25.82,0,1.81-.1,3.66-.3,5.57h-51.95c.4,4.42,2.23,7.93,5.5,10.54,3.26,2.61,7.25,3.91,11.97,3.91,2.21,0,4.19-.25,5.95-.75s3.11-1.08,4.07-1.73c.95-.65,1.75-1.33,2.41-2.03.65-.7,1.08-1.3,1.28-1.81l.3-.75h19.42c-.1.6-.32,1.41-.67,2.41-.35,1-1.31,2.78-2.86,5.35-1.56,2.56-3.44,4.82-5.65,6.77-2.21,1.96-5.47,3.74-9.79,5.35-4.32,1.6-9.19,2.41-14.61,2.41-10.84,0-19.6-3.19-26.27-9.56-6.68-6.38-10.01-14.93-10.01-25.67s3.21-19.12,9.64-25.75Zm42.76,18.37v-.45c0-3.81-1.5-6.85-4.52-9.11-3.01-2.26-6.88-3.39-11.59-3.39s-8.76,1.2-11.82,3.61c-3.06,2.41-4.89,5.52-5.5,9.33h33.43Z"/>
        <path class="cls-3" d="m642.95,17.67v37.34c4.42-5.92,10.64-9.08,18.67-9.48,1.1-.1,2.16-.15,3.16-.15,10.24,0,18.64,3.26,25.22,9.79,6.57,6.53,9.86,15.06,9.86,25.6s-3.24,19.4-9.71,25.67c-6.48,6.28-14.68,9.41-24.62,9.41-1.4,0-2.81-.05-4.22-.15-8.33-.61-14.6-4.12-18.82-10.54v9.33h-18.97V17.67h19.42Zm4.82,77.69c3.31,3.41,7.83,5.12,13.55,5.12,5.42,0,9.89-1.7,13.4-5.12s5.27-8.28,5.27-14.61-1.73-11.37-5.2-14.83c-3.46-3.46-7.96-5.2-13.48-5.2-12.45,0-18.67,6.63-18.67,19.88,0,6.43,1.7,11.34,5.12,14.76Z"/>
        <path class="cls-3" d="m725.76,46.73v36.74c0,6.23,1.11,10.71,3.31,13.47,2.21,2.77,5.77,4.14,10.69,4.14,3.31,0,6-.57,8.05-1.73,2.06-1.15,3.56-2.96,4.52-5.42.95-2.46,1.56-4.92,1.81-7.38.25-2.46.37-5.65.37-9.56v-30.26h19.42v67.75h-18.97v-8.28c-4.22,6.43-10.29,9.69-18.22,9.79h-1.2c-10.44,0-17.92-2.68-22.44-8.06-4.52-5.37-6.77-13.52-6.77-24.47v-36.74h19.42Z"/>
        <path class="cls-3" d="m788.54,54.71c6.23-6.23,14.46-9.34,24.69-9.34,1.1,0,2.21.05,3.31.15,7.93.4,14.1,3.56,18.52,9.48V17.67h19.42v96.81h-18.97v-9.33c-4.22,6.53-10.44,10.04-18.67,10.54-1.41.1-2.81.15-4.22.15-9.94,0-18.14-3.14-24.62-9.41-6.48-6.27-9.71-14.83-9.71-25.67s3.41-19.22,10.24-26.05Zm9.49,26.05c0,6.33,1.78,11.19,5.34,14.61,3.56,3.41,8.06,5.12,13.48,5.12s10.14-1.7,13.55-5.12c3.41-3.41,5.12-8.33,5.12-14.76,0-6.93-1.68-11.97-5.04-15.13s-7.9-4.74-13.63-4.74-10.04,1.73-13.55,5.2c-3.51,3.46-5.27,8.41-5.27,14.83Z"/>
        <path class="cls-3" d="m869.7,54.71c6.22-6.23,14.45-9.34,24.69-9.34,1.1,0,2.21.05,3.31.15,7.93.4,14.1,3.56,18.52,9.48V17.67h19.42v96.81h-18.97v-9.33c-4.22,6.53-10.44,10.04-18.67,10.54-1.41.1-2.81.15-4.22.15-9.94,0-18.14-3.14-24.62-9.41-6.47-6.27-9.71-14.83-9.71-25.67s3.41-19.22,10.24-26.05Zm9.48,26.05c0,6.33,1.78,11.19,5.35,14.61,3.56,3.41,8.05,5.12,13.48,5.12s10.14-1.7,13.55-5.12c3.41-3.41,5.12-8.33,5.12-14.76,0-6.93-1.68-11.97-5.04-15.13-3.37-3.16-7.91-4.74-13.63-4.74s-10.04,1.73-13.55,5.2c-3.51,3.46-5.27,8.41-5.27,14.83Z"/>
        <path class="cls-3" d="m940.46,46.73h20.33l16.41,45.17,17.31-45.17h20.18l-30.11,73.93c-1.41,3.61-2.54,6.3-3.39,8.05-.85,1.75-1.98,3.66-3.39,5.72-1.41,2.06-2.91,3.54-4.52,4.44-1.61.9-3.66,1.66-6.18,2.26-2.51.6-5.52.9-9.03.9h-12.2v-16.26h12.2c2.51,0,4.24-.33,5.2-.98.95-.65,1.88-2.03,2.78-4.14l2.56-6.78-28.16-67.15Z"/>
      </g>
      <path class="cls-2" d="m136.05,56.45C130.33,24.42,102.25,0,68.56,0,30.76,0,0,30.78,0,68.59c0,33.67,24.39,61.77,56.43,67.48,3.94.73,8,1.1,12.13,1.1s8.22-.38,12.16-1.1v-24.92c-3.86,1.13-7.95,1.73-12.16,1.73s-8.27-.58-12.13-1.7c-14.69-4.19-26.27-15.77-30.46-30.46-1.13-3.86-1.7-7.92-1.7-12.13s.58-8.27,1.7-12.13c5.29-18.55,22.39-32.16,42.59-32.16s37.3,13.61,42.59,32.16c1.13,3.86,1.7,7.92,1.7,12.13s-.58,8.27-1.7,12.13h24.89c.73-3.94,1.1-8,1.1-12.13s-.38-8.2-1.1-12.13Z"/>
      <path class="cls-1" d="m136.05,80.72c-5.01,28.1-27.53,50.39-55.63,55.41l.3-24.97c14.67-4.16,26.25-15.77,30.43-30.43h24.89Z"/>
      <rect class="cls-2" x="14.84" y="56.45" width="137.55" height="24.27"/>
      <polygon class="cls-2" points="80.72 68.59 80.72 134.86 68.57 137.17 56.43 134.86 56.43 68.59 80.72 68.59"/>
    </g>
  </g>
</svg>