<?xml version="1.0" encoding="UTF-8"?>
<svg id="Layer_2" data-name="Layer 2" xmlns="http://www.w3.org/2000/svg" xmlns:xlink="http://www.w3.org/1999/xlink" viewBox="0 0 597.28 537.64">
  <defs>
    <style>
      .cls-1 {
        fill: url(#linear-gradient);
      }

      .cls-1, .cls-2 {
        stroke-width: 0px;
      }

      .cls-2 {
        fill: #0a65fc;
      }
    </style>
    <linearGradient id="linear-gradient" x1="504.67" y1="309.19" x2="378.47" y2="458.46" gradientUnits="userSpaceOnUse">
      <stop offset="0" stop-color="#0a65fc" stop-opacity="0"/>
      <stop offset="1" stop-color="#0a65fc"/>
    </linearGradient>
  </defs>
  <g id="Layer_1-2" data-name="Layer 1">
    <g>
      <path class="cls-2" d="m533.22,221.27C510.82,95.7,400.78,0,268.72,0,120.56,0,0,120.66,0,268.82c0,131.95,95.6,242.1,221.17,264.5,15.43,2.85,31.34,4.32,47.55,4.32s32.23-1.47,47.65-4.32v-97.66c-15.13,4.42-31.15,6.78-47.65,6.78s-32.42-2.26-47.55-6.68c-57.58-16.41-102.97-61.8-119.38-119.38-4.42-15.13-6.68-31.05-6.68-47.56s2.26-32.42,6.68-47.55c20.73-72.71,87.74-126.06,166.93-126.06s146.2,53.35,166.93,126.06c4.42,15.13,6.68,31.05,6.68,47.55s-2.26,32.42-6.68,47.56h97.57c2.85-15.43,4.32-31.34,4.32-47.56s-1.47-32.13-4.32-47.55Z"/>
      <path class="cls-1" d="m533.22,316.38c-19.65,110.14-107.9,197.51-218.04,217.16l1.19-97.88c57.48-16.31,102.87-61.8,119.28-119.28h97.57Z"/>
      <rect class="cls-2" x="58.17" y="221.27" width="539.12" height="95.11"/>
      <polygon class="cls-2" points="316.38 268.82 316.38 528.55 268.77 537.64 221.17 528.55 221.17 268.82 316.38 268.82"/>
    </g>
  </g>
</svg>