<svg width="424" height="251" viewBox="0 0 424 251" fill="none" xmlns="http://www.w3.org/2000/svg">
<g clip-path="url(#clip0_2105_5622)">
<mask id="mask0_2105_5622" style="mask-type:alpha" maskUnits="userSpaceOnUse" x="0" y="0" width="424" height="251">
<rect y="0.780029" width="424" height="250" fill="url(#paint0_linear_2105_5622)"/>
</mask>
<g mask="url(#mask0_2105_5622)">
<g opacity="0.2" filter="url(#filter0_f_2105_5622)">
<circle cx="425.689" cy="248.28" r="123" fill="#31C48D"/>
</g>
<g opacity="0.1" filter="url(#filter1_f_2105_5622)">
<circle cx="-17" cy="-76.22" r="123" fill="#FA9428"/>
</g>
<g filter="url(#filter2_d_2105_5622)">
<rect x="40" y="20.78" width="426.425" height="249" rx="11.1621" fill="white" fill-opacity="0.2" shape-rendering="crispEdges"/>
<rect x="40" y="20.78" width="426.425" height="249" rx="11.1621" stroke="white" stroke-opacity="0.8" stroke-width="1.5" shape-rendering="crispEdges"/>
<path d="M55.7162 41.375C56.1538 41.375 56.511 41.308 56.7878 41.1741C57.0735 41.0312 57.2834 40.8348 57.4173 40.5847C57.5513 40.3347 57.6182 40.0445 57.6182 39.7141C57.6182 39.1872 57.4664 38.7765 57.1628 38.4818C56.8592 38.1871 56.377 38.0398 55.7162 38.0398H53.5597V41.375H55.7162ZM58.9577 39.7141C58.9577 40.0534 58.8997 40.3927 58.7836 40.7321C58.6675 41.0625 58.48 41.3616 58.221 41.6295C57.962 41.8974 57.6227 42.1117 57.203 42.2724C56.7923 42.4242 56.2967 42.5001 55.7162 42.5001H53.5597V46.2908H52.2203V36.9146H55.7162C56.4485 36.9146 57.0512 37.0441 57.5245 37.3031C58.0067 37.5531 58.3639 37.8924 58.596 38.3211C58.8371 38.7407 58.9577 39.2051 58.9577 39.7141ZM60.4588 39.5935H61.6107L61.6911 40.491C61.8786 40.2588 62.0929 40.0668 62.334 39.915C62.5841 39.7543 62.852 39.6426 63.1377 39.5801C63.4324 39.5176 63.736 39.5221 64.0485 39.5935V40.7856C63.7539 40.7142 63.4681 40.7053 63.1913 40.7589C62.9145 40.8124 62.6644 40.9285 62.4412 41.1071C62.2269 41.2768 62.0528 41.5045 61.9188 41.7902C61.7849 42.076 61.7179 42.4198 61.7179 42.8216V46.2908H60.4588V39.5935ZM68.2582 46.3845C67.6242 46.3845 67.0527 46.2461 66.5437 45.9693C66.0436 45.6836 65.6507 45.2862 65.365 44.7772C65.0792 44.2593 64.9363 43.6521 64.9363 42.9555C64.9363 42.2501 65.0837 41.6384 65.3784 41.1205C65.673 40.6026 66.0749 40.2052 66.5839 39.9284C67.0929 39.6426 67.6644 39.4998 68.2984 39.4998C68.9324 39.4998 69.5039 39.6426 70.0129 39.9284C70.5308 40.2052 70.9371 40.6026 71.2317 41.1205C71.5264 41.6295 71.6738 42.2322 71.6738 42.9288C71.6738 43.6342 71.522 44.2459 71.2184 44.7638C70.9237 45.2817 70.5174 45.6836 69.9995 45.9693C69.4815 46.2461 68.9011 46.3845 68.2582 46.3845ZM68.2448 45.2326C68.602 45.2326 68.9368 45.1522 69.2494 44.9915C69.5619 44.8218 69.8164 44.5673 70.0129 44.228C70.2182 43.8887 70.3209 43.4556 70.3209 42.9288C70.3209 42.4108 70.2227 41.9867 70.0262 41.6563C69.8387 41.317 69.5887 41.0669 69.2762 40.9062C68.9636 40.7365 68.6288 40.6517 68.2716 40.6517C67.9233 40.6517 67.5974 40.7365 67.2938 40.9062C66.9991 41.0669 66.758 41.317 66.5705 41.6563C66.3829 41.9956 66.2892 42.4287 66.2892 42.9555C66.2892 43.4735 66.3785 43.9021 66.5571 44.2414C66.7446 44.5718 66.9857 44.8218 67.2804 44.9915C67.5751 45.1522 67.8965 45.2326 68.2448 45.2326ZM78.2621 40.7321L78.1147 40.7722V36.6467H79.3872V46.2908H78.2353L78.1415 45.2862C77.9183 45.5898 77.6147 45.8488 77.2307 46.0631C76.8557 46.2774 76.3958 46.3845 75.8511 46.3845C75.2438 46.3845 74.7125 46.2417 74.2571 45.9559C73.8106 45.6702 73.4579 45.2683 73.199 44.7504C72.9489 44.2325 72.8239 43.6297 72.8239 42.9422C72.8239 42.2546 72.9489 41.6518 73.199 41.1339C73.4579 40.616 73.8106 40.2141 74.2571 39.9284C74.7125 39.6426 75.2438 39.4998 75.8511 39.4998C76.4315 39.4998 76.9226 39.6203 77.3245 39.8614C77.7352 40.0936 78.0478 40.3838 78.2621 40.7321ZM74.1768 42.9422C74.1768 43.6297 74.3553 44.1834 74.7125 44.6031C75.0697 45.0228 75.5475 45.2326 76.1457 45.2326C76.5119 45.2326 76.8423 45.1433 77.1369 44.9647C77.4316 44.7861 77.6682 44.5272 77.8468 44.1878C78.0254 43.8396 78.1147 43.4244 78.1147 42.9422C78.1147 42.46 78.0254 42.0492 77.8468 41.7099C77.6682 41.3705 77.4316 41.1116 77.1369 40.933C76.8423 40.7455 76.5119 40.6517 76.1457 40.6517C75.5564 40.6517 75.0786 40.8615 74.7125 41.2812C74.3553 41.7009 74.1768 42.2546 74.1768 42.9422ZM86.895 46.2908H85.7431L85.6493 45.5005C85.435 45.7862 85.1627 46.005 84.8323 46.1568C84.5108 46.3086 84.1492 46.3845 83.7473 46.3845C83.2294 46.3845 82.7785 46.2774 82.3945 46.0631C82.0105 45.8398 81.7114 45.5184 81.497 45.0987C81.2917 44.67 81.189 44.1387 81.189 43.5047V39.5935H82.4614V43.344C82.4614 43.9601 82.5865 44.4289 82.8365 44.7504C83.0955 45.0719 83.4839 45.2326 84.0018 45.2326C84.5108 45.2326 84.9082 45.0674 85.1939 44.737C85.4886 44.4066 85.6359 43.9155 85.6359 43.2636V39.5935H86.895V46.2908ZM91.6708 46.3845C91.0278 46.3845 90.4608 46.2417 89.9697 45.9559C89.4785 45.6612 89.0946 45.2594 88.8178 44.7504C88.5499 44.2414 88.4159 43.6476 88.4159 42.9689C88.4159 42.2814 88.5543 41.6786 88.8311 41.1607C89.108 40.6428 89.4919 40.2365 89.9831 39.9418C90.4742 39.6471 91.0457 39.4998 91.6976 39.4998C92.3852 39.4998 92.9879 39.6605 93.5058 39.982C94.0327 40.3034 94.4122 40.7365 94.6444 41.2812L93.5058 41.6831C93.3719 41.3705 93.1442 41.1205 92.8227 40.933C92.5102 40.7455 92.153 40.6517 91.7511 40.6517C91.3404 40.6517 90.9877 40.7499 90.693 40.9464C90.3983 41.1339 90.1706 41.4018 90.0099 41.75C89.8491 42.0894 89.7688 42.4912 89.7688 42.9555C89.7688 43.6521 89.9474 44.2057 90.3045 44.6165C90.6617 45.0272 91.1439 45.2326 91.7511 45.2326C92.153 45.2326 92.5102 45.1433 92.8227 44.9647C93.1442 44.7861 93.3853 44.5406 93.546 44.228L94.6711 44.6299C94.4211 45.1656 94.0282 45.5943 93.4924 45.9157C92.9566 46.2283 92.3494 46.3845 91.6708 46.3845ZM96.6366 39.5935V37.7183H97.9091V39.5935H99.5834V40.7187H97.9091V44.0137C97.9091 44.4245 97.9894 44.7147 98.1502 44.8844C98.3198 45.054 98.5297 45.1522 98.7797 45.179C99.0387 45.1969 99.3065 45.188 99.5834 45.1522V46.2372C99.2172 46.3176 98.8556 46.3399 98.4984 46.3042C98.1502 46.2774 97.8331 46.1792 97.5474 46.0095C97.2706 45.8398 97.0473 45.5943 96.8777 45.2728C96.7169 44.9424 96.6366 44.5227 96.6366 44.0137V40.7187H95.6722V39.5935H96.6366ZM101.196 39.5935H102.469V46.2908H101.196V39.5935ZM101.839 38.4148C101.598 38.4148 101.397 38.3345 101.237 38.1737C101.076 38.013 100.995 37.8165 100.995 37.5844C100.995 37.3433 101.076 37.1423 101.237 36.9816C101.397 36.8119 101.598 36.7271 101.839 36.7271C102.071 36.7271 102.268 36.8119 102.429 36.9816C102.598 37.1423 102.683 37.3433 102.683 37.5844C102.683 37.8165 102.598 38.013 102.429 38.1737C102.268 38.3345 102.071 38.4148 101.839 38.4148ZM105.303 39.5935L107.232 44.9379L109.174 39.5935H110.513L107.901 46.2908H106.535L103.937 39.5935H105.303ZM111.988 39.5935H113.26V46.2908H111.988V39.5935ZM112.631 38.4148C112.39 38.4148 112.189 38.3345 112.028 38.1737C111.867 38.013 111.787 37.8165 111.787 37.5844C111.787 37.3433 111.867 37.1423 112.028 36.9816C112.189 36.8119 112.39 36.7271 112.631 36.7271C112.863 36.7271 113.059 36.8119 113.22 36.9816C113.39 37.1423 113.475 37.3433 113.475 37.5844C113.475 37.8165 113.39 38.013 113.22 38.1737C113.059 38.3345 112.863 38.4148 112.631 38.4148ZM115.8 39.5935V37.7183H117.072V39.5935H118.746V40.7187H117.072V44.0137C117.072 44.4245 117.152 44.7147 117.313 44.8844C117.483 45.054 117.693 45.1522 117.943 45.179C118.202 45.1969 118.47 45.188 118.746 45.1522V46.2372C118.38 46.3176 118.019 46.3399 117.661 46.3042C117.313 46.2774 116.996 46.1792 116.71 46.0095C116.434 45.8398 116.21 45.5943 116.041 45.2728C115.88 44.9424 115.8 44.5227 115.8 44.0137V40.7187H114.835V39.5935H115.8ZM120.359 39.5935H121.632V46.2908H120.359V39.5935ZM121.002 38.4148C120.761 38.4148 120.56 38.3345 120.4 38.1737C120.239 38.013 120.158 37.8165 120.158 37.5844C120.158 37.3433 120.239 37.1423 120.4 36.9816C120.56 36.8119 120.761 36.7271 121.002 36.7271C121.234 36.7271 121.431 36.8119 121.592 36.9816C121.761 37.1423 121.846 37.3433 121.846 37.5844C121.846 37.8165 121.761 38.013 121.592 38.1737C121.431 38.3345 121.234 38.4148 121.002 38.4148ZM126.649 46.3845C126.006 46.3845 125.435 46.2372 124.935 45.9425C124.443 45.6389 124.055 45.2237 123.769 44.6968C123.492 44.17 123.354 43.5672 123.354 42.8886C123.354 42.2367 123.492 41.6563 123.769 41.1473C124.046 40.6383 124.426 40.2365 124.908 39.9418C125.399 39.6471 125.953 39.4998 126.569 39.4998C127.194 39.4998 127.747 39.6382 128.23 39.915C128.712 40.1829 129.087 40.5624 129.355 41.0535C129.623 41.5357 129.752 42.0938 129.743 42.7278C129.743 42.835 129.739 42.9466 129.73 43.0627C129.721 43.1699 129.708 43.2904 129.69 43.4244H124.734C124.76 43.7815 124.859 44.0985 125.028 44.3754C125.207 44.6433 125.43 44.8531 125.698 45.0049C125.975 45.1567 126.287 45.2326 126.636 45.2326C127.082 45.2326 127.471 45.1478 127.801 44.9781C128.131 44.7995 128.364 44.5629 128.498 44.2682L129.596 44.6566C129.328 45.2014 128.935 45.6255 128.417 45.9291C127.908 46.2327 127.319 46.3845 126.649 46.3845ZM128.364 42.3394C128.364 42.0179 128.283 41.7277 128.122 41.4688C127.962 41.2098 127.743 41.0089 127.466 40.866C127.198 40.7142 126.895 40.6383 126.555 40.6383C126.252 40.6383 125.97 40.7142 125.711 40.866C125.461 41.0089 125.247 41.2098 125.069 41.4688C124.899 41.7188 124.792 42.009 124.747 42.3394H128.364ZM131.719 39.5935V37.7183H132.991V39.5935H134.665V40.7187H132.991V44.0137C132.991 44.4245 133.071 44.7147 133.232 44.8844C133.402 45.054 133.612 45.1522 133.862 45.179C134.121 45.1969 134.389 45.188 134.665 45.1522V46.2372C134.299 46.3176 133.938 46.3399 133.58 46.3042C133.232 46.2774 132.915 46.1792 132.629 46.0095C132.353 45.8398 132.129 45.5943 131.96 45.2728C131.799 44.9424 131.719 44.5227 131.719 44.0137V40.7187H130.754V39.5935H131.719Z" fill="#3D3D3D"/>
<path d="M379.731 29.989H443.683C449.924 29.9891 454.984 35.0489 454.984 41.2908C454.984 47.5326 449.924 52.5924 443.683 52.5925H379.731C373.49 52.5925 368.43 47.5327 368.43 41.2908C368.43 35.0489 373.49 29.989 379.731 29.989Z" fill="#F6F6F6"/>
<path d="M379.731 29.989H443.683C449.924 29.9891 454.984 35.0489 454.984 41.2908C454.984 47.5326 449.924 52.5924 443.683 52.5925H379.731C373.49 52.5925 368.43 47.5327 368.43 41.2908C368.43 35.0489 373.49 29.989 379.731 29.989Z" stroke="#E7E7E7" stroke-width="0.558103"/>
<path d="M386.289 44.5464L383.872 41.7266C383.657 41.4758 383.657 41.1057 383.872 40.8549L386.289 38.0352" stroke="#5D5D5D" stroke-width="0.837155" stroke-linecap="round"/>
<path d="M395.232 44.3851C394.794 44.3833 394.419 44.2676 394.108 44.0383C393.797 43.8089 393.56 43.475 393.395 43.0366C393.231 42.5982 393.148 42.0701 393.148 41.4523C393.148 40.8363 393.231 40.3101 393.395 39.8735C393.562 39.437 393.8 39.104 394.111 38.8746C394.424 38.6453 394.797 38.5306 395.232 38.5306C395.667 38.5306 396.039 38.6462 396.35 38.8774C396.661 39.1068 396.899 39.4397 397.063 39.8763C397.23 40.311 397.313 40.8363 397.313 41.4523C397.313 42.072 397.231 42.601 397.066 43.0394C396.901 43.4759 396.664 43.8098 396.353 44.0411C396.042 44.2704 395.669 44.3851 395.232 44.3851ZM395.232 43.6443C395.617 43.6443 395.917 43.4565 396.134 43.081C396.352 42.7055 396.461 42.1626 396.461 41.4523C396.461 40.9806 396.411 40.582 396.311 40.2564C396.213 39.929 396.072 39.6811 395.887 39.5128C395.704 39.3426 395.485 39.2575 395.232 39.2575C394.849 39.2575 394.548 39.4462 394.33 39.8236C394.112 40.2009 394.002 40.7438 394 41.4523C394 41.9258 394.049 42.3263 394.147 42.6537C394.247 42.9793 394.388 43.2262 394.572 43.3946C394.755 43.561 394.975 43.6443 395.232 43.6443ZM400.453 38.6083V44.2908H399.593V39.4684H399.56L398.2 40.3563V39.535L399.618 38.6083H400.453ZM404.513 41.0888V41.8102H401.993V41.0888H404.513ZM407.585 44.3851C407.147 44.3833 406.772 44.2676 406.462 44.0383C406.151 43.8089 405.913 43.475 405.749 43.0366C405.584 42.5982 405.502 42.0701 405.502 41.4523C405.502 40.8363 405.584 40.3101 405.749 39.8735C405.915 39.437 406.154 39.104 406.464 38.8746C406.777 38.6453 407.151 38.5306 407.585 38.5306C408.02 38.5306 408.393 38.6462 408.704 38.8774C409.014 39.1068 409.252 39.4397 409.417 39.8763C409.583 40.311 409.666 40.8363 409.666 41.4523C409.666 42.072 409.584 42.601 409.42 43.0394C409.255 43.4759 409.017 43.8098 408.706 44.0411C408.396 44.2704 408.022 44.3851 407.585 44.3851ZM407.585 43.6443C407.97 43.6443 408.271 43.4565 408.487 43.081C408.705 42.7055 408.815 42.1626 408.815 41.4523C408.815 40.9806 408.765 40.582 408.665 40.2564C408.567 39.929 408.425 39.6811 408.24 39.5128C408.057 39.3426 407.839 39.2575 407.585 39.2575C407.203 39.2575 406.902 39.4462 406.684 39.8236C406.465 40.2009 406.355 40.7438 406.354 41.4523C406.354 41.9258 406.403 42.3263 406.501 42.6537C406.6 42.9793 406.742 43.2262 406.925 43.3946C407.108 43.561 407.328 43.6443 407.585 43.6443ZM412.571 44.3685C412.173 44.3685 411.822 44.3 411.516 44.1631C411.213 44.0263 410.975 43.8376 410.803 43.5971C410.631 43.3566 410.546 43.0829 410.548 42.7758C410.546 42.5353 410.595 42.3143 410.695 42.1127C410.797 41.9092 410.935 41.7399 411.109 41.6049C411.282 41.468 411.477 41.3811 411.691 41.3441V41.3108C411.408 41.2423 411.182 41.0907 411.011 40.8557C410.841 40.6208 410.757 40.3508 410.759 40.0455C410.757 39.7551 410.834 39.4962 410.989 39.2686C411.147 39.0393 411.362 38.8589 411.636 38.7276C411.91 38.5962 412.221 38.5306 412.571 38.5306C412.917 38.5306 413.226 38.5972 413.498 38.7303C413.771 38.8617 413.987 39.042 414.144 39.2714C414.301 39.4989 414.381 39.757 414.383 40.0455C414.381 40.3508 414.294 40.6208 414.122 40.8557C413.95 41.0907 413.726 41.2423 413.45 41.3108V41.3441C413.663 41.3811 413.855 41.468 414.025 41.6049C414.197 41.7399 414.334 41.9092 414.435 42.1127C414.539 42.3143 414.592 42.5353 414.594 42.7758C414.592 43.0829 414.505 43.3566 414.333 43.5971C414.161 43.8376 413.922 44.0263 413.617 44.1631C413.314 44.3 412.965 44.3685 412.571 44.3685ZM412.571 43.6665C412.806 43.6665 413.009 43.6276 413.181 43.5499C413.353 43.4704 413.486 43.3603 413.581 43.2198C413.675 43.0773 413.723 42.9108 413.725 42.7203C413.723 42.5224 413.671 42.3476 413.57 42.1959C413.47 42.0442 413.334 41.9249 413.162 41.838C412.99 41.751 412.793 41.7076 412.571 41.7076C412.347 41.7076 412.148 41.751 411.974 41.838C411.8 41.9249 411.664 42.0442 411.564 42.1959C411.464 42.3476 411.415 42.5224 411.417 42.7203C411.415 42.9108 411.46 43.0773 411.553 43.2198C411.647 43.3603 411.781 43.4704 411.955 43.5499C412.129 43.6276 412.334 43.6665 412.571 43.6665ZM412.571 41.0222C412.76 41.0222 412.927 40.9843 413.073 40.9085C413.219 40.8326 413.334 40.7272 413.417 40.5921C413.502 40.4571 413.546 40.299 413.548 40.1177C413.546 39.9401 413.503 39.7847 413.42 39.6515C413.338 39.5184 413.225 39.4157 413.079 39.3436C412.932 39.2696 412.763 39.2326 412.571 39.2326C412.375 39.2326 412.203 39.2696 412.055 39.3436C411.909 39.4157 411.795 39.5184 411.713 39.6515C411.632 39.7847 411.592 39.9401 411.594 40.1177C411.592 40.299 411.633 40.4571 411.716 40.5921C411.799 40.7272 411.914 40.8326 412.06 40.9085C412.208 40.9843 412.378 41.0222 412.571 41.0222ZM419.942 38.6083H420.796V42.6371C420.796 43.0015 420.724 43.3132 420.58 43.5721C420.437 43.8311 420.237 44.029 419.978 44.1659C419.719 44.3009 419.415 44.3685 419.068 44.3685C418.748 44.3685 418.46 44.3102 418.205 44.1937C417.951 44.0771 417.751 43.9079 417.603 43.6859C417.457 43.4621 417.383 43.1902 417.383 42.8701H418.235C418.235 43.0274 418.271 43.1633 418.344 43.278C418.418 43.3927 418.518 43.4824 418.646 43.5472C418.775 43.6101 418.923 43.6415 419.09 43.6415C419.271 43.6415 419.425 43.6036 419.55 43.5277C419.678 43.45 419.775 43.3363 419.842 43.1865C419.908 43.0366 419.942 42.8535 419.942 42.6371V38.6083ZM423.218 44.3851C422.948 44.3851 422.704 44.3352 422.485 44.2353C422.267 44.1335 422.094 43.9865 421.967 43.7941C421.841 43.6017 421.778 43.3659 421.778 43.0866C421.778 42.8461 421.824 42.6482 421.917 42.4928C422.009 42.3374 422.134 42.2144 422.291 42.1238C422.448 42.0331 422.624 41.9647 422.818 41.9184C423.013 41.8722 423.211 41.837 423.412 41.813C423.667 41.7834 423.875 41.7594 424.034 41.7409C424.193 41.7205 424.308 41.6881 424.38 41.6437C424.453 41.5993 424.489 41.5272 424.489 41.4273V41.4079C424.489 41.1656 424.42 40.9778 424.283 40.8446C424.148 40.7115 423.947 40.6449 423.678 40.6449C423.399 40.6449 423.179 40.7068 423.018 40.8308C422.859 40.9529 422.749 41.0888 422.688 41.2386L421.908 41.0611C422.001 40.8021 422.136 40.5931 422.313 40.434C422.493 40.2731 422.699 40.1565 422.932 40.0844C423.165 40.0104 423.41 39.9734 423.667 39.9734C423.838 39.9734 424.018 39.9937 424.208 40.0344C424.401 40.0733 424.58 40.1454 424.747 40.2509C424.915 40.3563 425.053 40.5071 425.16 40.7031C425.267 40.8974 425.321 41.1499 425.321 41.4606V44.2908H424.511V43.7081H424.478C424.424 43.8154 424.343 43.9208 424.236 44.0244C424.129 44.128 423.991 44.214 423.823 44.2824C423.654 44.3509 423.453 44.3851 423.218 44.3851ZM423.398 43.7192C423.628 43.7192 423.824 43.6739 423.986 43.5832C424.151 43.4926 424.276 43.3742 424.361 43.2281C424.448 43.0801 424.491 42.9219 424.491 42.7536V42.2042C424.462 42.2338 424.405 42.2616 424.319 42.2875C424.236 42.3115 424.141 42.3328 424.034 42.3513C423.926 42.3679 423.822 42.3837 423.72 42.3985C423.618 42.4114 423.533 42.4225 423.465 42.4317C423.304 42.4521 423.157 42.4863 423.024 42.5344C422.892 42.5825 422.787 42.6519 422.707 42.7425C422.63 42.8313 422.591 42.9497 422.591 43.0977C422.591 43.303 422.667 43.4584 422.818 43.5638C422.97 43.6674 423.163 43.7192 423.398 43.7192ZM427.256 41.7603V44.2908H426.426V40.0289H427.222V40.7226H427.275C427.373 40.4969 427.527 40.3156 427.736 40.1787C427.947 40.0418 428.212 39.9734 428.532 39.9734C428.822 39.9734 429.077 40.0344 429.295 40.1565C429.513 40.2768 429.683 40.4562 429.803 40.6948C429.923 40.9334 429.983 41.2285 429.983 41.5799V44.2908H429.154V41.6798C429.154 41.3709 429.073 41.1295 428.912 40.9556C428.751 40.7799 428.53 40.692 428.249 40.692C428.057 40.692 427.886 40.7337 427.736 40.8169C427.588 40.9001 427.47 41.0222 427.383 41.1832C427.298 41.3422 427.256 41.5346 427.256 41.7603Z" fill="#6D6D6D"/>
<path d="M53.5119 107.284C53.2765 107.281 53.0447 107.238 52.8162 107.155C52.5895 107.073 52.3834 106.935 52.1979 106.743C52.0123 106.551 51.8638 106.292 51.7521 105.968C51.6422 105.643 51.5872 105.238 51.5872 104.752C51.5872 104.291 51.6327 103.882 51.7238 103.525C51.8165 103.168 51.9497 102.866 52.1231 102.621C52.2966 102.373 52.5062 102.185 52.7518 102.057C52.9974 101.928 53.2731 101.863 53.5788 101.863C53.8932 101.863 54.1723 101.925 54.4162 102.049C54.6601 102.172 54.8576 102.343 55.0088 102.562C55.1617 102.78 55.2587 103.028 55.2999 103.306H54.5141C54.4609 103.086 54.3552 102.907 54.1972 102.768C54.0392 102.628 53.8331 102.559 53.5788 102.559C53.1924 102.559 52.8909 102.727 52.6745 103.064C52.4598 103.401 52.3516 103.869 52.3499 104.468H52.3885C52.4795 104.319 52.5912 104.192 52.7235 104.087C52.8574 103.98 53.0069 103.899 53.1718 103.842C53.3384 103.784 53.5136 103.754 53.6974 103.754C54.0031 103.754 54.2796 103.829 54.527 103.979C54.776 104.126 54.9744 104.331 55.1221 104.592C55.2699 104.853 55.3437 105.152 55.3437 105.488C55.3437 105.825 55.2673 106.13 55.1144 106.403C54.9633 106.676 54.7503 106.893 54.4755 107.052C54.2006 107.21 53.8794 107.288 53.5119 107.284ZM53.5093 106.614C53.712 106.614 53.8932 106.564 54.0529 106.465C54.2127 106.365 54.3389 106.231 54.4317 106.063C54.5244 105.895 54.5708 105.707 54.5708 105.499C54.5708 105.296 54.5253 105.111 54.4342 104.945C54.3449 104.778 54.2212 104.646 54.0632 104.548C53.9069 104.45 53.7283 104.401 53.5273 104.401C53.3744 104.401 53.2327 104.43 53.1022 104.489C52.9734 104.547 52.86 104.628 52.7621 104.731C52.6642 104.834 52.5869 104.952 52.5302 105.086C52.4753 105.219 52.4478 105.359 52.4478 105.506C52.4478 105.704 52.4933 105.887 52.5843 106.055C52.6771 106.224 52.8033 106.359 52.9631 106.462C53.1245 106.564 53.3066 106.614 53.5093 106.614ZM58.1192 107.3C57.7121 107.298 57.3643 107.191 57.0758 106.978C56.7872 106.765 56.5665 106.455 56.4136 106.047C56.2607 105.64 56.1843 105.15 56.1843 104.576C56.1843 104.004 56.2607 103.516 56.4136 103.11C56.5682 102.705 56.7898 102.396 57.0783 102.183C57.3686 101.97 57.7156 101.863 58.1192 101.863C58.5229 101.863 58.869 101.971 59.1575 102.185C59.4461 102.398 59.6668 102.708 59.8197 103.113C59.9743 103.517 60.0516 104.004 60.0516 104.576C60.0516 105.152 59.9751 105.643 59.8223 106.05C59.6694 106.455 59.4487 106.765 59.1601 106.98C58.8716 107.193 58.5246 107.3 58.1192 107.3ZM58.1192 106.612C58.4765 106.612 58.7556 106.437 58.9566 106.089C59.1593 105.74 59.2606 105.236 59.2606 104.576C59.2606 104.138 59.2142 103.768 59.1215 103.466C59.0304 103.162 58.899 102.932 58.7273 102.775C58.5572 102.617 58.3545 102.538 58.1192 102.538C57.7637 102.538 57.4846 102.714 57.2819 103.064C57.0792 103.414 56.977 103.918 56.9753 104.576C56.9753 105.016 57.0208 105.388 57.1118 105.692C57.2046 105.994 57.336 106.224 57.506 106.38C57.6761 106.534 57.8805 106.612 58.1192 106.612ZM62.896 107.212V103.255H63.6355V103.899H63.6844C63.7669 103.681 63.9017 103.511 64.0889 103.389C64.2761 103.265 64.5003 103.203 64.7614 103.203C65.0259 103.203 65.2475 103.265 65.4261 103.389C65.6065 103.512 65.7396 103.682 65.8255 103.899H65.8667C65.9611 103.687 66.1114 103.519 66.3176 103.394C66.5237 103.267 66.7693 103.203 67.0544 103.203C67.4134 103.203 67.7063 103.316 67.933 103.541C68.1615 103.766 68.2757 104.105 68.2757 104.558V107.212H67.5053V104.63C67.5053 104.362 67.4323 104.168 67.2863 104.048C67.1403 103.928 66.966 103.868 66.7633 103.868C66.5125 103.868 66.3176 103.945 66.1784 104.1C66.0393 104.253 65.9697 104.449 65.9697 104.69V107.212H65.2019V104.581C65.2019 104.367 65.135 104.194 65.001 104.064C64.867 103.933 64.6927 103.868 64.478 103.868C64.332 103.868 64.1971 103.906 64.0735 103.984C63.9515 104.059 63.8527 104.165 63.7772 104.301C63.7033 104.436 63.6664 104.593 63.6664 104.772V107.212H62.896Z" fill="#888888"/>
<path d="M51.5589 138.506V137.861L53.8391 134.26H54.3466V135.208H54.0246L52.3937 137.789V137.831H55.5189V138.506H51.5589ZM54.0606 139.536V138.31L54.0658 138.016V134.26H54.8207V139.536H54.0606ZM58.2538 139.624C57.8468 139.622 57.4989 139.515 57.2104 139.302C56.9218 139.089 56.7011 138.779 56.5482 138.372C56.3954 137.964 56.3189 137.474 56.3189 136.9C56.3189 136.328 56.3954 135.84 56.5482 135.434C56.7028 135.029 56.9244 134.72 57.213 134.507C57.5032 134.294 57.8502 134.187 58.2538 134.187C58.6575 134.187 59.0036 134.295 59.2922 134.509C59.5807 134.722 59.8014 135.032 59.9543 135.437C60.1089 135.841 60.1862 136.328 60.1862 136.9C60.1862 137.476 60.1098 137.967 59.9569 138.374C59.804 138.78 59.5833 139.09 59.2947 139.304C59.0062 139.517 58.6592 139.624 58.2538 139.624ZM58.2538 138.936C58.6111 138.936 58.8902 138.761 59.0912 138.413C59.2939 138.064 59.3952 137.56 59.3952 136.9C59.3952 136.462 59.3488 136.092 59.2561 135.79C59.1651 135.486 59.0337 135.256 58.8619 135.099C58.6918 134.941 58.4892 134.862 58.2538 134.862C57.8983 134.862 57.6192 135.038 57.4165 135.388C57.2138 135.738 57.1116 136.243 57.1099 136.9C57.1099 137.34 57.1554 137.712 57.2464 138.016C57.3392 138.318 57.4706 138.548 57.6406 138.704C57.8107 138.859 58.0151 138.936 58.2538 138.936ZM63.0306 139.536V135.579H63.7701V136.223H63.819C63.9015 136.005 64.0363 135.835 64.2235 135.713C64.4108 135.589 64.6349 135.527 64.896 135.527C65.1605 135.527 65.3821 135.589 65.5607 135.713C65.7411 135.836 65.8742 136.006 65.9601 136.223H66.0013C66.0958 136.012 66.2461 135.843 66.4522 135.718C66.6583 135.591 66.9039 135.527 67.189 135.527C67.548 135.527 67.8409 135.64 68.0676 135.865C68.2961 136.09 68.4103 136.429 68.4103 136.882V139.536H67.6399V136.955C67.6399 136.687 67.5669 136.492 67.4209 136.372C67.2749 136.252 67.1006 136.192 66.8979 136.192C66.6471 136.192 66.4522 136.269 66.313 136.424C66.1739 136.577 66.1044 136.773 66.1044 137.014V139.536H65.3366V136.906C65.3366 136.691 65.2696 136.518 65.1356 136.388C65.0016 136.257 64.8273 136.192 64.6126 136.192C64.4666 136.192 64.3317 136.231 64.2081 136.308C64.0861 136.383 63.9874 136.489 63.9118 136.625C63.8379 136.76 63.801 136.918 63.801 137.096V139.536H63.0306Z" fill="#888888"/>
<path d="M51.6697 171.86V171.283L53.4552 169.433C53.6458 169.232 53.803 169.056 53.9267 168.905C54.0521 168.752 54.1457 168.607 54.2075 168.47C54.2693 168.332 54.3003 168.186 54.3003 168.032C54.3003 167.857 54.259 167.705 54.1766 167.578C54.0941 167.449 53.9816 167.351 53.8391 167.282C53.6965 167.212 53.5359 167.176 53.3573 167.176C53.1683 167.176 53.0034 167.215 52.8626 167.292C52.7217 167.37 52.6135 167.479 52.5379 167.619C52.4624 167.76 52.4246 167.925 52.4246 168.114H51.6645C51.6645 167.793 51.7384 167.512 51.8861 167.272C52.0338 167.031 52.2365 166.845 52.4941 166.713C52.7518 166.579 53.0447 166.512 53.3727 166.512C53.7042 166.512 53.9962 166.578 54.2487 166.71C54.5029 166.841 54.7013 167.019 54.8439 167.246C54.9865 167.471 55.0577 167.725 55.0577 168.009C55.0577 168.204 55.0208 168.396 54.9469 168.583C54.8748 168.77 54.7486 168.979 54.5682 169.209C54.3879 169.438 54.1371 169.715 53.8159 170.041L52.7673 171.139V171.178H55.1428V171.86H51.6697ZM57.9563 171.948C57.5492 171.946 57.2014 171.839 56.9128 171.626C56.6242 171.413 56.4035 171.103 56.2506 170.696C56.0978 170.289 56.0213 169.798 56.0213 169.225C56.0213 168.653 56.0978 168.164 56.2506 167.759C56.4052 167.353 56.6268 167.044 56.9154 166.831C57.2057 166.618 57.5526 166.512 57.9563 166.512C58.3599 166.512 58.706 166.619 58.9946 166.834C59.2831 167.047 59.5039 167.356 59.6567 167.761C59.8113 168.165 59.8886 168.653 59.8886 169.225C59.8886 169.8 59.8122 170.291 59.6593 170.698C59.5064 171.104 59.2857 171.414 58.9972 171.628C58.7086 171.841 58.3616 171.948 57.9563 171.948ZM57.9563 171.26C58.3135 171.26 58.5927 171.086 58.7936 170.737C58.9963 170.388 59.0976 169.884 59.0976 169.225C59.0976 168.787 59.0513 168.416 58.9585 168.114C58.8675 167.81 58.7361 167.58 58.5643 167.424C58.3943 167.266 58.1916 167.187 57.9563 167.187C57.6007 167.187 57.3216 167.362 57.1189 167.712C56.9162 168.063 56.814 168.567 56.8123 169.225C56.8123 169.664 56.8578 170.036 56.9489 170.34C57.0416 170.643 57.173 170.872 57.3431 171.028C57.5131 171.183 57.7175 171.26 57.9563 171.26ZM62.733 171.86V167.903H63.4725V168.547H63.5214C63.6039 168.329 63.7387 168.159 63.9259 168.037C64.1132 167.913 64.3373 167.851 64.5984 167.851C64.8629 167.851 65.0845 167.913 65.2631 168.037C65.4435 168.161 65.5766 168.331 65.6625 168.547H65.7037C65.7982 168.336 65.9485 168.167 66.1546 168.042C66.3607 167.915 66.6063 167.851 66.8915 167.851C67.2505 167.851 67.5433 167.964 67.77 168.189C67.9985 168.414 68.1127 168.753 68.1127 169.207V171.86H67.3423V169.279C67.3423 169.011 67.2693 168.817 67.1233 168.696C66.9773 168.576 66.803 168.516 66.6003 168.516C66.3495 168.516 66.1546 168.593 66.0155 168.748C65.8763 168.901 65.8068 169.098 65.8068 169.338V171.86H65.039V169.23C65.039 169.015 64.972 168.842 64.838 168.712C64.704 168.581 64.5297 168.516 64.315 168.516C64.169 168.516 64.0342 168.555 63.9105 168.632C63.7885 168.708 63.6898 168.813 63.6142 168.949C63.5403 169.085 63.5034 169.242 63.5034 169.42V171.86H62.733Z" fill="#888888"/>
<path d="M53.5067 204.272C53.0996 204.27 52.7518 204.163 52.4632 203.95C52.1747 203.737 51.9539 203.427 51.8011 203.02C51.6482 202.613 51.5718 202.122 51.5718 201.549C51.5718 200.977 51.6482 200.488 51.8011 200.083C51.9557 199.677 52.1772 199.368 52.4658 199.155C52.7561 198.942 53.1031 198.836 53.5067 198.836C53.9103 198.836 54.2565 198.943 54.545 199.158C54.8336 199.371 55.0543 199.68 55.2072 200.085C55.3618 200.489 55.4391 200.977 55.4391 201.549C55.4391 202.124 55.3626 202.615 55.2097 203.022C55.0569 203.428 54.8362 203.738 54.5476 203.953C54.259 204.166 53.9121 204.272 53.5067 204.272ZM53.5067 203.584C53.864 203.584 54.1431 203.41 54.3441 203.061C54.5467 202.712 54.6481 202.208 54.6481 201.549C54.6481 201.111 54.6017 200.741 54.5089 200.438C54.4179 200.134 54.2865 199.904 54.1147 199.748C53.9447 199.59 53.742 199.511 53.5067 199.511C53.1511 199.511 52.872 199.686 52.6693 200.036C52.4667 200.387 52.3645 200.891 52.3627 201.549C52.3627 201.988 52.4083 202.36 52.4993 202.664C52.5921 202.967 52.7235 203.196 52.8935 203.352C53.0635 203.507 53.2679 203.584 53.5067 203.584Z" fill="#888888"/>
<path d="M139.842 178.34C93.0978 166.328 77.7101 200.506 75.8594 219.096H454.603V133.2C444.115 125.621 410.475 131.578 357.173 165.899C290.546 208.8 290.811 70.6593 248.508 66.3692C206.205 62.0791 198.273 193.356 139.842 178.34Z" fill="url(#paint1_linear_2105_5622)"/>
<path d="M75.8594 219.096C77.7101 200.506 93.0978 166.328 139.842 178.34C198.273 193.356 206.205 62.0791 248.508 66.3692C290.811 70.6593 290.546 208.8 357.173 165.899C410.475 131.578 444.775 124.748 455.263 132.327" stroke="#FACA15" stroke-width="1.67431"/>
<path d="M77.7373 155.929C78.9721 139.961 97.847 80.6536 106.05 129.411C115.914 188.049 136.73 228.532 143.887 208.964C165.32 150.369 171.772 133.293 181.196 106.743C218.24 2.38426 226.443 193.994 249.198 155.929C278.702 106.575 312.967 34.8896 338.634 99.8999C362.371 160.024 380.302 214.18 388.114 178.597C396.846 138.821 426.216 63.1179 454.793 74.2378" stroke="#0A65FC" stroke-width="1.67431"/>
<path d="M106.05 129.411C97.847 80.6536 78.9721 139.961 77.7373 155.929V229.527H454.793V74.2378C426.216 63.1179 396.846 138.821 388.114 178.597C380.302 214.18 362.371 160.024 338.634 99.8999C312.967 34.8896 278.702 106.575 249.199 155.929C226.443 193.995 218.24 2.38425 181.196 106.743C171.772 133.293 165.32 150.369 143.887 208.964C136.73 228.532 115.914 188.049 106.05 129.411Z" fill="url(#paint2_linear_2105_5622)"/>
<circle cx="102.829" cy="241.642" r="1.95336" stroke="#888888" stroke-width="1.11621"/>
<circle cx="157.05" cy="241.642" r="1.95336" stroke="#888888" stroke-width="1.11621"/>
<circle cx="211.27" cy="241.642" r="1.95336" stroke="#888888" stroke-width="1.11621"/>
<circle cx="265.491" cy="241.642" r="1.95336" stroke="#888888" stroke-width="1.11621"/>
<circle cx="319.712" cy="241.642" r="1.95336" stroke="#888888" stroke-width="1.11621"/>
<circle cx="373.932" cy="241.642" r="2.51146" fill="#0A65FC"/>
<circle cx="201.269" cy="123.623" r="4.18577" fill="#FACA15" stroke="white" stroke-width="1.67431"/>
<circle cx="201.268" cy="75.3364" r="4.18577" fill="#0A65FC" stroke="white" stroke-width="1.67431"/>
<g filter="url(#filter3_d_2105_5622)">
<path d="M216.563 141.889C216.563 136.957 220.561 132.959 225.493 132.959H330.417C335.348 132.959 339.346 136.957 339.346 141.889V198.815C339.346 203.747 335.348 207.745 330.417 207.745H225.493C220.561 207.745 216.563 203.747 216.563 198.815V141.889Z" fill="white" shape-rendering="crispEdges"/>
<path d="M225.493 133.238H330.417V132.68H225.493V133.238ZM339.067 141.889V198.815H339.625V141.889H339.067ZM330.417 207.466H225.493V208.024H330.417V207.466ZM216.843 198.815V141.889H216.284V198.815H216.843ZM225.493 207.466C220.716 207.466 216.843 203.593 216.843 198.815H216.284C216.284 203.901 220.407 208.024 225.493 208.024V207.466ZM339.067 198.815C339.067 203.593 335.194 207.466 330.417 207.466V208.024C335.502 208.024 339.625 203.901 339.625 198.815H339.067ZM330.417 133.238C335.194 133.238 339.067 137.111 339.067 141.889H339.625C339.625 136.803 335.502 132.68 330.417 132.68V133.238ZM225.493 132.68C220.407 132.68 216.284 136.803 216.284 141.889H216.843C216.843 137.111 220.716 133.238 225.493 133.238V132.68Z" fill="#E7E7E7"/>
<path d="M229.136 142.489H230.234V147.669C230.234 148.138 230.142 148.538 229.956 148.871C229.773 149.204 229.515 149.459 229.182 149.635C228.849 149.808 228.459 149.895 228.012 149.895C227.6 149.895 227.23 149.82 226.902 149.671C226.576 149.521 226.318 149.303 226.128 149.018C225.94 148.73 225.846 148.38 225.846 147.969H226.942C226.942 148.171 226.988 148.346 227.081 148.493C227.176 148.641 227.305 148.756 227.47 148.839C227.636 148.92 227.826 148.961 228.04 148.961C228.273 148.961 228.471 148.912 228.632 148.814C228.797 148.714 228.921 148.568 229.007 148.376C229.093 148.183 229.136 147.947 229.136 147.669V142.489ZM235.224 147.523V144.316H236.294V149.795H235.246V148.846H235.189C235.062 149.139 234.86 149.383 234.582 149.578C234.306 149.77 233.963 149.867 233.551 149.867C233.199 149.867 232.888 149.789 232.616 149.635C232.348 149.478 232.136 149.246 231.981 148.939C231.829 148.632 231.753 148.253 231.753 147.801V144.316H232.82V147.673C232.82 148.046 232.923 148.343 233.13 148.565C233.337 148.786 233.606 148.896 233.936 148.896C234.136 148.896 234.335 148.846 234.532 148.747C234.732 148.647 234.897 148.496 235.028 148.294C235.161 148.091 235.227 147.835 235.224 147.523ZM238.794 146.542V149.795H237.728V144.316H238.751V145.208H238.819C238.945 144.918 239.143 144.684 239.411 144.508C239.683 144.332 240.024 144.245 240.435 144.245C240.809 144.245 241.136 144.323 241.416 144.48C241.697 144.635 241.915 144.865 242.069 145.172C242.224 145.479 242.301 145.858 242.301 146.31V149.795H241.234V146.438C241.234 146.041 241.131 145.731 240.924 145.507C240.717 145.281 240.433 145.168 240.071 145.168C239.824 145.168 239.604 145.222 239.411 145.329C239.221 145.436 239.07 145.593 238.958 145.8C238.849 146.004 238.794 146.252 238.794 146.542ZM248.92 149.895C248.43 149.895 247.992 149.811 247.607 149.642C247.224 149.473 246.921 149.239 246.697 148.939C246.476 148.637 246.357 148.288 246.34 147.89H247.46C247.475 148.107 247.547 148.295 247.678 148.454C247.811 148.611 247.985 148.732 248.199 148.818C248.413 148.904 248.651 148.946 248.912 148.946C249.2 148.946 249.455 148.896 249.676 148.797C249.899 148.697 250.074 148.558 250.2 148.379C250.326 148.198 250.389 147.99 250.389 147.755C250.389 147.51 250.326 147.295 250.2 147.109C250.077 146.921 249.895 146.774 249.654 146.667C249.417 146.56 249.129 146.506 248.791 146.506H248.174V145.607H248.791C249.062 145.607 249.3 145.559 249.505 145.461C249.711 145.363 249.873 145.228 249.99 145.054C250.106 144.878 250.165 144.673 250.165 144.437C250.165 144.211 250.113 144.015 250.011 143.849C249.911 143.68 249.769 143.548 249.583 143.453C249.4 143.357 249.184 143.31 248.934 143.31C248.696 143.31 248.474 143.354 248.267 143.442C248.062 143.527 247.896 143.651 247.767 143.813C247.639 143.972 247.57 144.164 247.56 144.387H246.494C246.506 143.992 246.622 143.645 246.843 143.346C247.067 143.046 247.362 142.812 247.728 142.643C248.094 142.474 248.501 142.389 248.948 142.389C249.417 142.389 249.821 142.481 250.161 142.664C250.503 142.845 250.767 143.086 250.953 143.388C251.141 143.69 251.234 144.021 251.231 144.38C251.234 144.789 251.119 145.136 250.889 145.422C250.66 145.707 250.356 145.899 249.975 145.996V146.053C250.461 146.127 250.836 146.32 251.103 146.631C251.372 146.943 251.505 147.329 251.502 147.791C251.505 148.192 251.393 148.553 251.167 148.871C250.943 149.19 250.638 149.441 250.25 149.624C249.863 149.805 249.419 149.895 248.92 149.895ZM254.037 148.797L253.983 149.185C253.948 149.471 253.887 149.768 253.802 150.077C253.718 150.389 253.632 150.678 253.541 150.944C253.453 151.21 253.381 151.422 253.324 151.579H252.567C252.598 151.432 252.641 151.232 252.696 150.98C252.75 150.73 252.804 150.451 252.856 150.141C252.909 149.832 252.948 149.517 252.974 149.196L253.01 148.797H254.037ZM258.07 149.795V148.996L260.542 146.435C260.806 146.157 261.024 145.913 261.195 145.704C261.369 145.492 261.498 145.291 261.584 145.101C261.669 144.91 261.712 144.708 261.712 144.494C261.712 144.252 261.655 144.042 261.541 143.866C261.427 143.688 261.271 143.551 261.074 143.456C260.876 143.359 260.654 143.31 260.407 143.31C260.145 143.31 259.917 143.363 259.722 143.47C259.527 143.577 259.377 143.728 259.272 143.923C259.168 144.118 259.115 144.347 259.115 144.608H258.063C258.063 144.164 258.165 143.775 258.37 143.442C258.574 143.109 258.855 142.851 259.212 142.668C259.568 142.482 259.974 142.389 260.428 142.389C260.887 142.389 261.291 142.481 261.641 142.664C261.993 142.845 262.268 143.092 262.465 143.406C262.662 143.718 262.761 144.07 262.761 144.462C262.761 144.733 262.71 144.998 262.608 145.258C262.508 145.517 262.333 145.806 262.083 146.125C261.834 146.441 261.486 146.825 261.042 147.277L259.59 148.797V148.85H262.879V149.795H258.07ZM266.774 149.917C266.211 149.914 265.729 149.766 265.33 149.471C264.93 149.176 264.625 148.747 264.413 148.183C264.201 147.619 264.095 146.94 264.095 146.146C264.095 145.354 264.201 144.677 264.413 144.116C264.627 143.555 264.934 143.127 265.333 142.832C265.735 142.537 266.216 142.389 266.774 142.389C267.333 142.389 267.813 142.538 268.212 142.835C268.612 143.13 268.917 143.558 269.129 144.12C269.343 144.679 269.45 145.354 269.45 146.146C269.45 146.943 269.344 147.623 269.133 148.187C268.921 148.748 268.615 149.177 268.216 149.474C267.816 149.769 267.336 149.917 266.774 149.917ZM266.774 148.964C267.269 148.964 267.656 148.723 267.934 148.24C268.215 147.757 268.355 147.059 268.355 146.146C268.355 145.539 268.291 145.027 268.162 144.608C268.036 144.187 267.854 143.869 267.616 143.652C267.381 143.434 267.1 143.324 266.774 143.324C266.282 143.324 265.896 143.567 265.615 144.052C265.334 144.537 265.193 145.235 265.191 146.146C265.191 146.755 265.254 147.27 265.38 147.691C265.508 148.109 265.69 148.427 265.925 148.643C266.161 148.857 266.444 148.964 266.774 148.964ZM270.716 149.795V148.996L273.188 146.435C273.452 146.157 273.669 145.913 273.841 145.704C274.014 145.492 274.144 145.291 274.229 145.101C274.315 144.91 274.358 144.708 274.358 144.494C274.358 144.252 274.301 144.042 274.187 143.866C274.073 143.688 273.917 143.551 273.719 143.456C273.522 143.359 273.3 143.31 273.052 143.31C272.791 143.31 272.562 143.363 272.367 143.47C272.172 143.577 272.022 143.728 271.918 143.923C271.813 144.118 271.761 144.347 271.761 144.608H270.708C270.708 144.164 270.811 143.775 271.015 143.442C271.22 143.109 271.5 142.851 271.857 142.668C272.214 142.482 272.619 142.389 273.074 142.389C273.533 142.389 273.937 142.481 274.287 142.664C274.639 142.845 274.913 143.092 275.111 143.406C275.308 143.718 275.407 144.07 275.407 144.462C275.407 144.733 275.356 144.998 275.253 145.258C275.153 145.517 274.979 145.806 274.729 146.125C274.479 146.441 274.132 146.825 273.687 147.277L272.235 148.797V148.85H275.524V149.795H270.716ZM276.566 148.368V147.477L279.723 142.489H280.426V143.802H279.98L277.722 147.377V147.434H282.049V148.368H276.566ZM280.03 149.795V148.097L280.037 147.691V142.489H281.083V149.795H280.03Z" fill="#3D3D3D"/>
<mask id="path-29-inside-1_2105_5622" fill="white">
<path d="M225.493 163.097H330.417V175.375H225.493V163.097Z"/>
</mask>
<path d="M227.167 175.375V163.097H223.819V175.375H227.167Z" fill="#0A65FC" mask="url(#path-29-inside-1_2105_5622)"/>
<path d="M235.023 166.053H235.878V170.082C235.878 170.446 235.806 170.758 235.662 171.017C235.519 171.276 235.318 171.474 235.059 171.611C234.8 171.746 234.497 171.813 234.149 171.813C233.829 171.813 233.542 171.755 233.286 171.639C233.033 171.522 232.832 171.353 232.684 171.131C232.538 170.907 232.465 170.635 232.465 170.315H233.317C233.317 170.472 233.353 170.608 233.425 170.723C233.499 170.838 233.6 170.927 233.728 170.992C233.857 171.055 234.005 171.086 234.172 171.086C234.353 171.086 234.506 171.049 234.632 170.973C234.76 170.895 234.857 170.781 234.923 170.631C234.99 170.482 235.023 170.298 235.023 170.082V166.053ZM237.059 171.736V167.474H237.889V171.736H237.059ZM237.478 166.816C237.334 166.816 237.21 166.768 237.106 166.672C237.005 166.574 236.954 166.457 236.954 166.322C236.954 166.185 237.005 166.069 237.106 165.973C237.21 165.875 237.334 165.826 237.478 165.826C237.623 165.826 237.746 165.875 237.847 165.973C237.951 166.069 238.003 166.185 238.003 166.322C238.003 166.457 237.951 166.574 237.847 166.672C237.746 166.768 237.623 166.816 237.478 166.816ZM239.005 167.474H239.835V172.013C239.835 172.298 239.783 172.539 239.679 172.735C239.578 172.931 239.426 173.08 239.224 173.181C239.024 173.283 238.777 173.334 238.483 173.334C238.454 173.334 238.426 173.334 238.4 173.334C238.372 173.334 238.344 173.333 238.314 173.331V172.618C238.34 172.618 238.363 172.618 238.383 172.618C238.402 172.618 238.423 172.618 238.447 172.618C238.643 172.618 238.785 172.565 238.872 172.46C238.961 172.356 239.005 172.206 239.005 172.008V167.474ZM239.416 166.816C239.271 166.816 239.147 166.768 239.044 166.672C238.942 166.574 238.891 166.457 238.891 166.322C238.891 166.185 238.942 166.069 239.044 165.973C239.147 165.875 239.271 165.826 239.416 165.826C239.56 165.826 239.683 165.875 239.785 165.973C239.888 166.069 239.94 166.185 239.94 166.322C239.94 166.457 239.888 166.574 239.785 166.672C239.683 166.768 239.56 166.816 239.416 166.816Z" fill="#3D3D3D"/>
<path d="M290.55 171.813C290.153 171.813 289.801 171.745 289.496 171.608C289.193 171.471 288.955 171.283 288.783 171.042C288.611 170.802 288.526 170.528 288.528 170.221C288.526 169.98 288.575 169.759 288.675 169.558C288.776 169.354 288.914 169.185 289.088 169.05C289.262 168.913 289.456 168.826 289.671 168.789V168.756C289.388 168.687 289.161 168.536 288.991 168.301C288.821 168.066 288.737 167.796 288.738 167.49C288.737 167.2 288.813 166.941 288.969 166.714C289.126 166.484 289.341 166.304 289.615 166.173C289.889 166.041 290.201 165.976 290.55 165.976C290.896 165.976 291.205 166.042 291.477 166.175C291.751 166.307 291.966 166.487 292.124 166.716C292.281 166.944 292.36 167.202 292.362 167.49C292.36 167.796 292.273 168.066 292.101 168.301C291.929 168.536 291.705 168.687 291.43 168.756V168.789C291.643 168.826 291.834 168.913 292.004 169.05C292.176 169.185 292.313 169.354 292.415 169.558C292.518 169.759 292.571 169.98 292.573 170.221C292.571 170.528 292.484 170.802 292.312 171.042C292.14 171.283 291.902 171.471 291.596 171.608C291.293 171.745 290.944 171.813 290.55 171.813ZM290.55 171.111C290.785 171.111 290.989 171.073 291.161 170.995C291.333 170.915 291.466 170.805 291.56 170.665C291.655 170.522 291.703 170.356 291.705 170.165C291.703 169.967 291.651 169.793 291.549 169.641C291.449 169.489 291.313 169.37 291.141 169.283C290.969 169.196 290.772 169.153 290.55 169.153C290.326 169.153 290.128 169.196 289.954 169.283C289.78 169.37 289.643 169.489 289.543 169.641C289.443 169.793 289.394 169.967 289.396 170.165C289.394 170.356 289.439 170.522 289.532 170.665C289.626 170.805 289.76 170.915 289.934 170.995C290.108 171.073 290.314 171.111 290.55 171.111ZM290.55 168.467C290.739 168.467 290.906 168.429 291.052 168.353C291.199 168.278 291.313 168.172 291.397 168.037C291.482 167.902 291.525 167.744 291.527 167.563C291.525 167.385 291.483 167.23 291.399 167.096C291.318 166.963 291.204 166.861 291.058 166.788C290.912 166.715 290.743 166.678 290.55 166.678C290.354 166.678 290.182 166.715 290.034 166.788C289.888 166.861 289.774 166.963 289.693 167.096C289.612 167.23 289.572 167.385 289.574 167.563C289.572 167.744 289.612 167.902 289.696 168.037C289.779 168.172 289.894 168.278 290.04 168.353C290.188 168.429 290.358 168.467 290.55 168.467ZM295.545 171.83C295.107 171.828 294.732 171.713 294.422 171.483C294.111 171.254 293.873 170.92 293.709 170.482C293.544 170.043 293.462 169.515 293.462 168.897C293.462 168.281 293.544 167.755 293.709 167.318C293.875 166.882 294.114 166.549 294.424 166.32C294.737 166.09 295.111 165.976 295.545 165.976C295.98 165.976 296.353 166.091 296.664 166.322C296.974 166.552 297.212 166.885 297.377 167.321C297.543 167.756 297.626 168.281 297.626 168.897C297.626 169.517 297.544 170.046 297.379 170.484C297.215 170.921 296.977 171.255 296.666 171.486C296.356 171.715 295.982 171.83 295.545 171.83ZM295.545 171.089C295.93 171.089 296.231 170.901 296.447 170.526C296.665 170.15 296.775 169.608 296.775 168.897C296.775 168.426 296.725 168.027 296.625 167.701C296.527 167.374 296.385 167.126 296.2 166.958C296.017 166.788 295.799 166.702 295.545 166.702C295.162 166.702 294.862 166.891 294.644 167.269C294.425 167.646 294.315 168.189 294.313 168.897C294.313 169.371 294.362 169.771 294.46 170.099C294.56 170.424 294.702 170.671 294.885 170.84C295.068 171.006 295.288 171.089 295.545 171.089ZM300.69 171.736V167.474H301.486V168.168H301.539C301.627 167.933 301.773 167.749 301.974 167.618C302.176 167.485 302.417 167.418 302.698 167.418C302.983 167.418 303.222 167.485 303.414 167.618C303.609 167.751 303.752 167.934 303.844 168.168H303.889C303.991 167.94 304.152 167.759 304.374 167.624C304.596 167.487 304.861 167.418 305.168 167.418C305.554 167.418 305.87 167.54 306.114 167.782C306.36 168.024 306.483 168.389 306.483 168.878V171.736H305.653V168.956C305.653 168.667 305.575 168.458 305.418 168.328C305.26 168.199 305.073 168.134 304.854 168.134C304.584 168.134 304.374 168.217 304.225 168.384C304.075 168.549 304 168.76 304 169.019V171.736H303.173V168.903C303.173 168.672 303.101 168.486 302.956 168.345C302.812 168.204 302.624 168.134 302.393 168.134C302.236 168.134 302.091 168.176 301.958 168.259C301.826 168.34 301.72 168.454 301.639 168.6C301.559 168.746 301.519 168.916 301.519 169.108V171.736H300.69ZM307.595 171.736V167.474H308.425V171.736H307.595ZM308.014 166.816C307.87 166.816 307.746 166.768 307.642 166.672C307.54 166.574 307.49 166.457 307.49 166.322C307.49 166.185 307.54 166.069 307.642 165.973C307.746 165.875 307.87 165.826 308.014 165.826C308.158 165.826 308.281 165.875 308.383 165.973C308.487 166.069 308.538 166.185 308.538 166.322C308.538 166.457 308.487 166.574 308.383 166.672C308.281 166.768 308.158 166.816 308.014 166.816ZM310.37 169.205V171.736H309.541V167.474H310.337V168.168H310.39C310.488 167.942 310.641 167.761 310.85 167.624C311.061 167.487 311.327 167.418 311.647 167.418C311.937 167.418 312.191 167.479 312.41 167.601C312.628 167.722 312.797 167.901 312.918 168.14C313.038 168.378 313.098 168.673 313.098 169.025V171.736H312.268V169.125C312.268 168.816 312.188 168.574 312.027 168.401C311.866 168.225 311.645 168.137 311.364 168.137C311.171 168.137 311 168.179 310.85 168.262C310.702 168.345 310.585 168.467 310.498 168.628C310.413 168.787 310.37 168.98 310.37 169.205ZM316.91 169.968V167.474H317.743V171.736H316.927V170.998H316.883C316.784 171.225 316.627 171.415 316.411 171.566C316.196 171.716 315.929 171.791 315.609 171.791C315.335 171.791 315.093 171.731 314.882 171.611C314.673 171.489 314.508 171.308 314.388 171.07C314.27 170.831 314.211 170.536 314.211 170.185V167.474H315.04V170.085C315.04 170.375 315.121 170.606 315.282 170.778C315.442 170.95 315.651 171.037 315.909 171.037C316.064 171.037 316.218 170.998 316.372 170.92C316.527 170.842 316.656 170.725 316.758 170.568C316.861 170.41 316.912 170.211 316.91 169.968ZM320.847 167.474V168.14H318.519V167.474H320.847ZM319.143 166.453H319.973V170.484C319.973 170.645 319.997 170.766 320.045 170.848C320.093 170.927 320.155 170.982 320.231 171.012C320.309 171.039 320.393 171.053 320.483 171.053C320.55 171.053 320.608 171.049 320.658 171.039C320.708 171.03 320.747 171.023 320.775 171.017L320.925 171.702C320.876 171.721 320.808 171.739 320.719 171.758C320.63 171.778 320.519 171.789 320.386 171.791C320.168 171.795 319.964 171.756 319.776 171.675C319.587 171.593 319.435 171.468 319.318 171.297C319.201 171.127 319.143 170.913 319.143 170.656V166.453ZM323.556 171.822C323.136 171.822 322.774 171.732 322.471 171.553C322.169 171.371 321.936 171.117 321.771 170.79C321.609 170.46 321.527 170.075 321.527 169.633C321.527 169.196 321.609 168.811 321.771 168.478C321.936 168.145 322.165 167.885 322.46 167.699C322.756 167.512 323.101 167.418 323.497 167.418C323.738 167.418 323.971 167.458 324.197 167.538C324.422 167.617 324.625 167.742 324.804 167.912C324.984 168.082 325.125 168.303 325.229 168.575C325.332 168.845 325.384 169.174 325.384 169.56V169.854H321.996V169.233H324.571C324.571 169.015 324.527 168.821 324.438 168.653C324.349 168.483 324.224 168.349 324.063 168.251C323.904 168.153 323.717 168.104 323.503 168.104C323.27 168.104 323.066 168.161 322.892 168.276C322.72 168.389 322.587 168.537 322.493 168.72C322.4 168.901 322.354 169.098 322.354 169.311V169.796C322.354 170.081 322.404 170.323 322.504 170.523C322.606 170.723 322.747 170.876 322.929 170.981C323.11 171.085 323.322 171.136 323.564 171.136C323.721 171.136 323.864 171.114 323.994 171.07C324.123 171.024 324.235 170.955 324.33 170.864C324.424 170.774 324.496 170.662 324.546 170.529L325.331 170.67C325.268 170.901 325.156 171.104 324.993 171.278C324.832 171.45 324.629 171.584 324.385 171.68C324.143 171.775 323.866 171.822 323.556 171.822ZM327.134 169.205V171.736H326.305V167.474H327.101V168.168H327.154C327.252 167.942 327.405 167.761 327.614 167.624C327.825 167.487 328.091 167.418 328.411 167.418C328.701 167.418 328.955 167.479 329.174 167.601C329.392 167.722 329.561 167.901 329.681 168.14C329.802 168.378 329.862 168.673 329.862 169.025V171.736H329.032V169.125C329.032 168.816 328.952 168.574 328.791 168.401C328.63 168.225 328.409 168.137 328.128 168.137C327.935 168.137 327.764 168.179 327.614 168.262C327.466 168.345 327.349 168.467 327.262 168.628C327.177 168.787 327.134 168.98 327.134 169.205Z" fill="#0A65FC"/>
<mask id="path-33-inside-2_2105_5622" fill="white">
<path d="M225.493 184.304H330.417V196.583H225.493V184.304Z"/>
</mask>
<path d="M227.167 196.583V184.304H223.819V196.583H227.167Z" fill="#FACA15" mask="url(#path-33-inside-2_2105_5622)"/>
<path d="M233.295 192.944H232.385L234.43 187.261H235.42L237.465 192.944H236.555L234.948 188.293H234.904L233.295 192.944ZM233.447 190.718H236.4V191.44H233.447V190.718ZM239.049 190.413V192.944H238.219V188.682H239.015V189.375H239.068C239.166 189.15 239.32 188.968 239.529 188.832C239.74 188.695 240.005 188.626 240.325 188.626C240.615 188.626 240.87 188.687 241.088 188.809C241.306 188.93 241.476 189.109 241.596 189.348C241.716 189.586 241.776 189.881 241.776 190.233V192.944H240.947V190.333C240.947 190.024 240.866 189.782 240.705 189.608C240.544 189.433 240.323 189.345 240.042 189.345C239.85 189.345 239.679 189.386 239.529 189.47C239.381 189.553 239.263 189.675 239.176 189.836C239.091 189.995 239.049 190.187 239.049 190.413ZM244.484 193.027C244.14 193.027 243.833 192.939 243.563 192.763C243.295 192.586 243.084 192.333 242.93 192.006C242.779 191.677 242.703 191.282 242.703 190.821C242.703 190.36 242.78 189.966 242.933 189.639C243.089 189.312 243.301 189.061 243.571 188.887C243.841 188.713 244.148 188.626 244.49 188.626C244.754 188.626 244.967 188.671 245.128 188.759C245.291 188.846 245.417 188.948 245.505 189.065C245.596 189.181 245.666 189.284 245.716 189.373H245.766V187.261H246.596V192.944H245.786V192.28H245.716C245.666 192.371 245.594 192.475 245.5 192.591C245.407 192.708 245.28 192.809 245.117 192.896C244.954 192.983 244.743 193.027 244.484 193.027ZM244.667 192.319C244.906 192.319 245.108 192.256 245.272 192.131C245.439 192.003 245.565 191.826 245.65 191.601C245.737 191.375 245.78 191.112 245.78 190.813C245.78 190.517 245.737 190.258 245.652 190.036C245.567 189.814 245.442 189.641 245.278 189.517C245.113 189.393 244.91 189.331 244.667 189.331C244.418 189.331 244.21 189.396 244.043 189.525C243.877 189.655 243.751 189.831 243.666 190.055C243.582 190.279 243.541 190.531 243.541 190.813C243.541 191.098 243.583 191.354 243.669 191.581C243.754 191.809 243.879 191.989 244.046 192.122C244.214 192.254 244.421 192.319 244.667 192.319ZM249.617 193.03C249.197 193.03 248.835 192.94 248.532 192.76C248.23 192.579 247.997 192.325 247.833 191.997C247.67 191.668 247.588 191.283 247.588 190.84C247.588 190.404 247.67 190.019 247.833 189.686C247.997 189.353 248.227 189.093 248.521 188.906C248.817 188.72 249.163 188.626 249.558 188.626C249.799 188.626 250.032 188.666 250.258 188.746C250.483 188.825 250.686 188.95 250.865 189.12C251.045 189.29 251.186 189.511 251.29 189.783C251.393 190.053 251.445 190.382 251.445 190.768V191.062H248.057V190.441H250.632C250.632 190.223 250.588 190.029 250.499 189.861C250.41 189.691 250.285 189.557 250.124 189.459C249.965 189.361 249.779 189.312 249.564 189.312C249.331 189.312 249.127 189.369 248.954 189.484C248.782 189.596 248.648 189.744 248.554 189.928C248.462 190.109 248.415 190.306 248.415 190.519V191.004C248.415 191.289 248.465 191.531 248.565 191.731C248.667 191.931 248.808 192.083 248.99 192.189C249.171 192.292 249.383 192.344 249.625 192.344C249.782 192.344 249.926 192.322 250.055 192.278C250.185 192.231 250.296 192.163 250.391 192.072C250.485 191.982 250.557 191.87 250.607 191.737L251.392 191.878C251.33 192.109 251.217 192.312 251.054 192.486C250.893 192.658 250.69 192.792 250.446 192.888C250.204 192.982 249.927 193.03 249.617 193.03ZM252.366 192.944V188.682H253.168V189.359H253.212C253.29 189.129 253.427 188.949 253.623 188.818C253.821 188.684 254.044 188.618 254.294 188.618C254.346 188.618 254.407 188.62 254.477 188.623C254.549 188.627 254.606 188.632 254.646 188.637V189.431C254.613 189.422 254.554 189.411 254.469 189.4C254.384 189.387 254.299 189.381 254.214 189.381C254.018 189.381 253.843 189.423 253.689 189.506C253.538 189.587 253.417 189.701 253.328 189.847C253.24 189.991 253.195 190.156 253.195 190.341V192.944H252.366ZM257.049 193.03C256.629 193.03 256.267 192.94 255.964 192.76C255.662 192.579 255.429 192.325 255.265 191.997C255.102 191.668 255.02 191.283 255.02 190.84C255.02 190.404 255.102 190.019 255.265 189.686C255.429 189.353 255.659 189.093 255.953 188.906C256.249 188.72 256.595 188.626 256.99 188.626C257.231 188.626 257.464 188.666 257.69 188.746C257.915 188.825 258.118 188.95 258.297 189.12C258.477 189.29 258.618 189.511 258.722 189.783C258.825 190.053 258.877 190.382 258.877 190.768V191.062H255.489V190.441H258.064C258.064 190.223 258.02 190.029 257.931 189.861C257.842 189.691 257.717 189.557 257.556 189.459C257.397 189.361 257.21 189.312 256.996 189.312C256.763 189.312 256.559 189.369 256.385 189.484C256.213 189.596 256.08 189.744 255.986 189.928C255.893 190.109 255.847 190.306 255.847 190.519V191.004C255.847 191.289 255.897 191.531 255.997 191.731C256.099 191.931 256.24 192.083 256.422 192.189C256.603 192.292 256.815 192.344 257.057 192.344C257.214 192.344 257.358 192.322 257.487 192.278C257.617 192.231 257.728 192.163 257.823 192.072C257.917 191.982 257.989 191.87 258.039 191.737L258.824 191.878C258.762 192.109 258.649 192.312 258.486 192.486C258.325 192.658 258.122 192.792 257.878 192.888C257.636 192.982 257.359 193.03 257.049 193.03ZM260.627 190.413V192.944H259.798V188.682H260.594V189.375H260.647C260.745 189.15 260.898 188.968 261.107 188.832C261.318 188.695 261.584 188.626 261.904 188.626C262.194 188.626 262.448 188.687 262.667 188.809C262.885 188.93 263.054 189.109 263.174 189.348C263.295 189.586 263.355 189.881 263.355 190.233V192.944H262.525V190.333C262.525 190.024 262.445 189.782 262.284 189.608C262.123 189.433 261.902 189.345 261.621 189.345C261.428 189.345 261.257 189.386 261.107 189.47C260.959 189.553 260.842 189.675 260.755 189.836C260.67 189.995 260.627 190.187 260.627 190.413Z" fill="#3D3D3D"/>
<path d="M290.597 193.021C290.25 193.021 289.937 192.955 289.66 192.822C289.384 192.686 289.164 192.502 288.999 192.267C288.835 192.032 288.747 191.763 288.736 191.462H289.568C289.588 191.706 289.697 191.907 289.893 192.064C290.089 192.221 290.324 192.3 290.597 192.3C290.816 192.3 291.009 192.25 291.177 192.15C291.348 192.048 291.481 191.909 291.577 191.731C291.675 191.553 291.724 191.351 291.724 191.123C291.724 190.892 291.674 190.686 291.574 190.505C291.474 190.323 291.336 190.181 291.161 190.077C290.987 189.974 290.787 189.921 290.561 189.919C290.389 189.919 290.216 189.949 290.043 190.008C289.869 190.067 289.728 190.145 289.621 190.241L288.836 190.125L289.155 187.261H292.279V187.996H289.868L289.687 189.586H289.721C289.832 189.479 289.979 189.389 290.162 189.317C290.347 189.245 290.545 189.209 290.756 189.209C291.102 189.209 291.41 189.291 291.68 189.456C291.951 189.62 292.165 189.845 292.321 190.13C292.478 190.413 292.555 190.739 292.554 191.107C292.555 191.475 292.472 191.803 292.304 192.092C292.137 192.38 291.906 192.608 291.61 192.774C291.316 192.939 290.979 193.021 290.597 193.021ZM295.545 193.038C295.107 193.036 294.732 192.92 294.422 192.691C294.111 192.462 293.873 192.128 293.709 191.689C293.544 191.251 293.462 190.723 293.462 190.105C293.462 189.489 293.544 188.963 293.709 188.526C293.875 188.09 294.114 187.757 294.424 187.527C294.737 187.298 295.111 187.183 295.545 187.183C295.98 187.183 296.353 187.299 296.664 187.53C296.974 187.76 297.212 188.093 297.377 188.529C297.543 188.964 297.626 189.489 297.626 190.105C297.626 190.725 297.544 191.254 297.379 191.692C297.215 192.129 296.977 192.463 296.666 192.694C296.356 192.923 295.982 193.038 295.545 193.038ZM295.545 192.297C295.93 192.297 296.231 192.109 296.447 191.734C296.665 191.358 296.775 190.815 296.775 190.105C296.775 189.633 296.725 189.235 296.625 188.909C296.527 188.582 296.385 188.334 296.2 188.166C296.017 187.995 295.799 187.91 295.545 187.91C295.162 187.91 294.862 188.099 294.644 188.476C294.425 188.854 294.315 189.397 294.313 190.105C294.313 190.579 294.362 190.979 294.46 191.307C294.56 191.632 294.702 191.879 294.885 192.047C295.068 192.214 295.288 192.297 295.545 192.297ZM300.69 192.944V188.682H301.486V189.375H301.539C301.627 189.14 301.773 188.957 301.974 188.826C302.176 188.693 302.417 188.626 302.698 188.626C302.983 188.626 303.222 188.693 303.414 188.826C303.609 188.959 303.752 189.142 303.844 189.375H303.889C303.991 189.148 304.152 188.967 304.374 188.832C304.596 188.695 304.861 188.626 305.168 188.626C305.554 188.626 305.87 188.747 306.114 188.99C306.36 189.232 306.483 189.597 306.483 190.086V192.944H305.653V190.163C305.653 189.875 305.575 189.666 305.418 189.536C305.26 189.407 305.073 189.342 304.854 189.342C304.584 189.342 304.374 189.425 304.225 189.592C304.075 189.756 304 189.968 304 190.227V192.944H303.173V190.111C303.173 189.879 303.101 189.694 302.956 189.553C302.812 189.412 302.624 189.342 302.393 189.342C302.236 189.342 302.091 189.384 301.958 189.467C301.826 189.548 301.72 189.662 301.639 189.808C301.559 189.954 301.519 190.124 301.519 190.316V192.944H300.69ZM307.595 192.944V188.682H308.425V192.944H307.595ZM308.014 188.024C307.87 188.024 307.746 187.976 307.642 187.88C307.54 187.782 307.49 187.665 307.49 187.53C307.49 187.393 307.54 187.277 307.642 187.181C307.746 187.083 307.87 187.034 308.014 187.034C308.158 187.034 308.281 187.083 308.383 187.181C308.487 187.277 308.538 187.393 308.538 187.53C308.538 187.665 308.487 187.782 308.383 187.88C308.281 187.976 308.158 188.024 308.014 188.024ZM310.37 190.413V192.944H309.541V188.682H310.337V189.375H310.39C310.488 189.15 310.641 188.968 310.85 188.832C311.061 188.695 311.327 188.626 311.647 188.626C311.937 188.626 312.191 188.687 312.41 188.809C312.628 188.93 312.797 189.109 312.918 189.348C313.038 189.586 313.098 189.881 313.098 190.233V192.944H312.268V190.333C312.268 190.024 312.188 189.782 312.027 189.608C311.866 189.433 311.645 189.345 311.364 189.345C311.171 189.345 311 189.386 310.85 189.47C310.702 189.553 310.585 189.675 310.498 189.836C310.413 189.995 310.37 190.187 310.37 190.413ZM316.91 191.176V188.682H317.743V192.944H316.927V192.206H316.883C316.784 192.433 316.627 192.623 316.411 192.774C316.196 192.924 315.929 192.999 315.609 192.999C315.335 192.999 315.093 192.939 314.882 192.819C314.673 192.697 314.508 192.516 314.388 192.278C314.27 192.039 314.211 191.744 314.211 191.393V188.682H315.04V191.293C315.04 191.583 315.121 191.814 315.282 191.986C315.442 192.158 315.651 192.244 315.909 192.244C316.064 192.244 316.218 192.206 316.372 192.128C316.527 192.05 316.656 191.933 316.758 191.775C316.861 191.618 316.912 191.418 316.91 191.176ZM320.847 188.682V189.348H318.519V188.682H320.847ZM319.143 187.661H319.973V191.692C319.973 191.853 319.997 191.974 320.045 192.056C320.093 192.135 320.155 192.19 320.231 192.219C320.309 192.247 320.393 192.261 320.483 192.261C320.55 192.261 320.608 192.256 320.658 192.247C320.708 192.238 320.747 192.231 320.775 192.225L320.925 192.91C320.876 192.929 320.808 192.947 320.719 192.966C320.63 192.986 320.519 192.997 320.386 192.999C320.168 193.003 319.964 192.964 319.776 192.883C319.587 192.801 319.435 192.675 319.318 192.505C319.201 192.335 319.143 192.121 319.143 191.864V187.661ZM323.556 193.03C323.136 193.03 322.774 192.94 322.471 192.76C322.169 192.579 321.936 192.325 321.771 191.997C321.609 191.668 321.527 191.283 321.527 190.84C321.527 190.404 321.609 190.019 321.771 189.686C321.936 189.353 322.165 189.093 322.46 188.906C322.756 188.72 323.101 188.626 323.497 188.626C323.738 188.626 323.971 188.666 324.197 188.746C324.422 188.825 324.625 188.95 324.804 189.12C324.984 189.29 325.125 189.511 325.229 189.783C325.332 190.053 325.384 190.382 325.384 190.768V191.062H321.996V190.441H324.571C324.571 190.223 324.527 190.029 324.438 189.861C324.349 189.691 324.224 189.557 324.063 189.459C323.904 189.361 323.717 189.312 323.503 189.312C323.27 189.312 323.066 189.369 322.892 189.484C322.72 189.596 322.587 189.744 322.493 189.928C322.4 190.109 322.354 190.306 322.354 190.519V191.004C322.354 191.289 322.404 191.531 322.504 191.731C322.606 191.931 322.747 192.083 322.929 192.189C323.11 192.292 323.322 192.344 323.564 192.344C323.721 192.344 323.864 192.322 323.994 192.278C324.123 192.231 324.235 192.163 324.33 192.072C324.424 191.982 324.496 191.87 324.546 191.737L325.331 191.878C325.268 192.109 325.156 192.312 324.993 192.486C324.832 192.658 324.629 192.792 324.385 192.888C324.143 192.982 323.866 193.03 323.556 193.03ZM327.134 190.413V192.944H326.305V188.682H327.101V189.375H327.154C327.252 189.15 327.405 188.968 327.614 188.832C327.825 188.695 328.091 188.626 328.411 188.626C328.701 188.626 328.955 188.687 329.174 188.809C329.392 188.93 329.561 189.109 329.681 189.348C329.802 189.586 329.862 189.881 329.862 190.233V192.944H329.032V190.333C329.032 190.024 328.952 189.782 328.791 189.608C328.63 189.433 328.409 189.345 328.128 189.345C327.935 189.345 327.764 189.386 327.614 189.47C327.466 189.553 327.349 189.675 327.262 189.836C327.177 189.995 327.134 190.187 327.134 190.413Z" fill="#FACA15"/>
</g>
</g>
</g>
</g>
<defs>
<filter id="filter0_f_2105_5622" x="102.689" y="-74.72" width="646" height="646" filterUnits="userSpaceOnUse" color-interpolation-filters="sRGB">
<feFlood flood-opacity="0" result="BackgroundImageFix"/>
<feBlend mode="normal" in="SourceGraphic" in2="BackgroundImageFix" result="shape"/>
<feGaussianBlur stdDeviation="100" result="effect1_foregroundBlur_2105_5622"/>
</filter>
<filter id="filter1_f_2105_5622" x="-340" y="-399.22" width="646" height="646" filterUnits="userSpaceOnUse" color-interpolation-filters="sRGB">
<feFlood flood-opacity="0" result="BackgroundImageFix"/>
<feBlend mode="normal" in="SourceGraphic" in2="BackgroundImageFix" result="shape"/>
<feGaussianBlur stdDeviation="100" result="effect1_foregroundBlur_2105_5622"/>
</filter>
<filter id="filter2_d_2105_5622" x="-10.75" y="-29.97" width="527.925" height="350.5" filterUnits="userSpaceOnUse" color-interpolation-filters="sRGB">
<feFlood flood-opacity="0" result="BackgroundImageFix"/>
<feColorMatrix in="SourceAlpha" type="matrix" values="0 0 0 0 0 0 0 0 0 0 0 0 0 0 0 0 0 0 127 0" result="hardAlpha"/>
<feOffset dx="-6" dy="-3"/>
<feGaussianBlur stdDeviation="8.5"/>
<feComposite in2="hardAlpha" operator="out"/>
<feColorMatrix type="matrix" values="0 0 0 0 0 0 0 0 0 0 0 0 0 0 0 0 0 0 0.06 0"/>
<feBlend mode="normal" in2="BackgroundImageFix" result="effect1_dropShadow_2105_5622"/>
<feBlend mode="normal" in="SourceGraphic" in2="effect1_dropShadow_2105_5622" result="shape"/>
</filter>
<filter id="filter3_d_2105_5622" x="205.68" y="122.076" width="151.246" height="103.249" filterUnits="userSpaceOnUse" color-interpolation-filters="sRGB">
<feFlood flood-opacity="0" result="BackgroundImageFix"/>
<feColorMatrix in="SourceAlpha" type="matrix" values="0 0 0 0 0 0 0 0 0 0 0 0 0 0 0 0 0 0 127 0" result="hardAlpha"/>
<feOffset dx="3.34862" dy="3.34862"/>
<feGaussianBlur stdDeviation="6.97629"/>
<feComposite in2="hardAlpha" operator="out"/>
<feColorMatrix type="matrix" values="0 0 0 0 0 0 0 0 0 0 0 0 0 0 0 0 0 0 0.1 0"/>
<feBlend mode="normal" in2="BackgroundImageFix" result="effect1_dropShadow_2105_5622"/>
<feBlend mode="normal" in="SourceGraphic" in2="effect1_dropShadow_2105_5622" result="shape"/>
</filter>
<linearGradient id="paint0_linear_2105_5622" x1="212" y1="0.780029" x2="212" y2="250.78" gradientUnits="userSpaceOnUse">
<stop offset="0.7"/>
<stop offset="1" stop-opacity="0"/>
</linearGradient>
<linearGradient id="paint1_linear_2105_5622" x1="265.231" y1="66.2662" x2="265.231" y2="219.096" gradientUnits="userSpaceOnUse">
<stop stop-color="#FF9F0A" stop-opacity="0.2"/>
<stop offset="1" stop-color="#FF9F0A" stop-opacity="0"/>
</linearGradient>
<linearGradient id="paint2_linear_2105_5622" x1="266.265" y1="73.135" x2="266.265" y2="229.527" gradientUnits="userSpaceOnUse">
<stop stop-color="#0A65FC" stop-opacity="0.2"/>
<stop offset="1" stop-color="#0A65FC" stop-opacity="0"/>
</linearGradient>
<clipPath id="clip0_2105_5622">
<path d="M0 20.78C0 9.73433 8.95431 0.780029 20 0.780029H404C415.046 0.780029 424 9.73433 424 20.78V230.78C424 241.826 415.046 250.78 404 250.78H20C8.9543 250.78 0 241.826 0 230.78V20.78Z" fill="white"/>
</clipPath>
</defs>
</svg>
