<svg width="424" height="251" viewBox="0 0 424 251" fill="none" xmlns="http://www.w3.org/2000/svg">
<g clip-path="url(#clip0_2105_5322)">
<mask id="mask0_2105_5322" style="mask-type:alpha" maskUnits="userSpaceOnUse" x="0" y="0" width="424" height="251">
<rect y="0.780029" width="424" height="250" fill="url(#paint0_linear_2105_5322)"/>
</mask>
<g mask="url(#mask0_2105_5322)">
</g>
<g clip-path="url(#clip1_2105_5322)">
<g opacity="0.2" filter="url(#filter0_f_2105_5322)">
<circle cx="425.689" cy="248.28" r="123" fill="#2B8BFF"/>
</g>
<g opacity="0.1" filter="url(#filter1_f_2105_5322)">
<circle cx="-17" cy="-76.22" r="123" fill="#FA3A4C"/>
</g>
<rect x="33.2432" y="33.0232" width="479.217" height="196.154" rx="12.4667" fill="white" fill-opacity="0.3"/>
<rect x="33.2432" y="33.0232" width="479.217" height="196.154" rx="12.4667" stroke="#E7E7E7" stroke-width="0.486421"/>
<path d="M53.4932 45.7332H492.211C496.375 45.7333 499.75 49.1093 499.75 53.2732V73.2156C499.75 77.3794 496.375 80.7555 492.211 80.7556H53.4932C49.3292 80.7556 45.9531 77.3795 45.9531 73.2156V53.2732C45.9531 49.1092 49.3292 45.7332 53.4932 45.7332Z" fill="white" fill-opacity="0.5"/>
<path d="M53.4932 45.7332H492.211C496.375 45.7333 499.75 49.1093 499.75 53.2732V73.2156C499.75 77.3794 496.375 80.7555 492.211 80.7556H53.4932C49.3292 80.7556 45.9531 77.3795 45.9531 73.2156V53.2732C45.9531 49.1092 49.3292 45.7332 53.4932 45.7332Z" stroke="#E7E7E7" stroke-width="0.486421"/>
<path d="M53.4932 58.9318C53.4932 56.4725 55.4868 54.4789 57.9461 54.4789H162.259C164.718 54.4789 166.712 56.4725 166.712 58.9318C166.712 61.3911 164.718 63.3848 162.259 63.3848H57.9461C55.4868 63.3848 53.4932 61.3911 53.4932 58.9318Z" fill="#E7E7E7"/>
<path d="M53.4932 68.6702C53.4932 66.8257 54.9884 65.3304 56.8329 65.3304H129.975C131.819 65.3304 133.315 66.8257 133.315 68.6702C133.315 70.5146 131.819 72.0099 129.975 72.0099H56.8329C54.9884 72.0099 53.4932 70.5146 53.4932 68.6702Z" fill="#E7E7E7"/>
<rect x="177.934" y="56.1912" width="28.8075" height="14.1062" rx="3.64816" fill="#F6F6F6"/>
<rect x="177.934" y="56.1912" width="28.8075" height="14.1062" rx="3.64816" stroke="#E7E7E7" stroke-width="0.486421"/>
<path d="M186.446 61.4202H189.365" stroke="#5D5D5D" stroke-width="0.583705" stroke-linecap="round" stroke-linejoin="round"/>
<path d="M186.446 62.8794H187.906" stroke="#5D5D5D" stroke-width="0.583705" stroke-linecap="round" stroke-linejoin="round"/>
<path d="M188.27 66.71V66.5276C188.27 65.4957 188.27 64.9798 188.59 64.6592C188.911 64.3387 189.427 64.3387 190.459 64.3387H190.641M190.823 63.7342V62.5146C190.823 61.1388 190.823 60.4509 190.396 60.0235C189.969 59.5961 189.281 59.5961 187.905 59.5961C186.529 59.5961 185.841 59.5961 185.414 60.0235C184.986 60.4509 184.986 61.1388 184.986 62.5146V64.1724C184.986 65.3562 184.986 65.9481 185.31 66.3491C185.375 66.43 185.449 66.5038 185.53 66.5691C185.931 66.8924 186.523 66.8924 187.706 66.8924C187.964 66.8924 188.092 66.8924 188.21 66.8508C188.235 66.8421 188.259 66.8322 188.282 66.821C188.395 66.767 188.486 66.676 188.668 66.494L190.396 64.7661C190.607 64.5552 190.712 64.4498 190.768 64.3157C190.823 64.1816 190.823 64.0324 190.823 63.7342Z" stroke="#5D5D5D" stroke-width="0.583705" stroke-linecap="round" stroke-linejoin="round"/>
<path d="M200.417 60.8178V61.2858L198.659 65.2443H198.026L199.803 61.349H197.4V60.8178H200.417Z" fill="#3D3D3D"/>
<rect x="215.01" y="56.569" width="46.21" height="13.3506" rx="3.64816" fill="#FACA15" fill-opacity="0.35"/>
<rect x="215.01" y="56.569" width="46.21" height="13.3506" rx="3.64816" stroke="#F6F6F6" stroke-width="0.486421"/>
<rect x="272.441" y="60.8123" width="70.1005" height="4.86421" rx="2.4321" fill="#E3E3F1"/>
<rect x="273.414" y="61.785" width="57.7726" height="2.91852" rx="1.45926" fill="#0A65FC"/>
<path d="M326.809 63.2444C326.809 64.0503 327.462 64.7036 328.268 64.7036H329.727C330.533 64.7036 331.186 64.0503 331.186 63.2444C331.186 62.4384 330.533 61.7851 329.727 61.7851H328.268C327.462 61.7851 326.809 62.4384 326.809 63.2444Z" fill="#0A65FC"/>
<path d="M355.791 60.4775V60.9814L353.898 65.2444H353.217L355.131 61.0495H352.543V60.4775H355.791ZM359.473 60.4775V61.0495H357.171V62.4728C357.267 62.3411 357.405 62.2344 357.587 62.1527C357.768 62.071 357.975 62.0301 358.206 62.0301C358.501 62.0301 358.749 62.0801 358.949 62.1799C359.148 62.2798 359.309 62.4092 359.432 62.5681C359.559 62.727 359.65 62.8995 359.704 63.0856C359.763 63.2672 359.793 63.442 359.793 63.61C359.793 63.9187 359.727 64.2002 359.596 64.4544C359.468 64.7087 359.278 64.913 359.023 65.0673C358.769 65.2171 358.461 65.2921 358.097 65.2921C357.77 65.2921 357.484 65.2353 357.239 65.1218C356.999 65.0038 356.806 64.8449 356.66 64.6451C356.52 64.4408 356.429 64.2093 356.388 63.9505H357.049C357.108 64.1866 357.228 64.3727 357.41 64.5089C357.596 64.6406 357.827 64.7064 358.104 64.7064C358.331 64.7064 358.52 64.661 358.669 64.5702C358.819 64.4794 358.928 64.3546 358.996 64.1957C359.069 64.0322 359.105 63.8415 359.105 63.6236C359.105 63.3058 359.019 63.0584 358.846 62.8814C358.674 62.7043 358.429 62.6158 358.111 62.6158C357.87 62.6158 357.666 62.6725 357.498 62.786C357.33 62.8995 357.21 63.0539 357.137 63.2491H356.497V60.4775H359.473ZM360.427 61.4649C360.427 61.138 360.522 60.8838 360.713 60.7022C360.903 60.5206 361.144 60.4298 361.434 60.4298C361.721 60.4298 361.959 60.5206 362.15 60.7022C362.345 60.8838 362.442 61.138 362.442 61.4649C362.442 61.7918 362.345 62.0483 362.15 62.2344C361.959 62.416 361.721 62.5068 361.434 62.5068C361.144 62.5068 360.903 62.416 360.713 62.2344C360.522 62.0483 360.427 61.7918 360.427 61.4649ZM361.434 60.8452C361.289 60.8452 361.173 60.8951 361.087 60.995C361.001 61.0949 360.958 61.2515 360.958 61.4649C360.958 61.6737 361.001 61.8304 361.087 61.9348C361.173 62.0392 361.289 62.0914 361.434 62.0914C361.575 62.0914 361.689 62.0392 361.775 61.9348C361.861 61.8304 361.904 61.6737 361.904 61.4649C361.904 61.2515 361.861 61.0949 361.775 60.995C361.689 60.8951 361.575 60.8452 361.434 60.8452ZM363.798 60.4775H364.465L361.721 65.2444H361.053L363.798 60.4775ZM363.089 64.257C363.089 63.9301 363.185 63.6758 363.375 63.4942C363.571 63.3081 363.811 63.215 364.097 63.215C364.383 63.215 364.622 63.3081 364.812 63.4942C365.007 63.6758 365.105 63.9301 365.105 64.257C365.105 64.5793 365.007 64.8335 364.812 65.0197C364.622 65.2013 364.383 65.2921 364.097 65.2921C363.811 65.2921 363.571 65.2013 363.375 65.0197C363.185 64.8335 363.089 64.5793 363.089 64.257ZM364.097 63.6373C363.952 63.6373 363.836 63.6872 363.75 63.7871C363.664 63.8869 363.62 64.0436 363.62 64.257C363.62 64.4658 363.664 64.6201 363.75 64.72C363.836 64.8199 363.952 64.8698 364.097 64.8698C364.233 64.8698 364.345 64.8199 364.431 64.72C364.522 64.6201 364.567 64.4658 364.567 64.257C364.567 64.0436 364.522 63.8869 364.431 63.7871C364.345 63.6872 364.233 63.6373 364.097 63.6373Z" fill="#3D3D3D"/>
<path d="M377.248 63.2443C377.248 57.7372 381.712 53.2727 387.22 53.2727H403.733C409.24 53.2727 413.705 57.7372 413.705 63.2443C413.705 68.7515 409.24 73.216 403.733 73.216H387.22C381.712 73.216 377.248 68.7515 377.248 63.2443Z" fill="#0A65FC"/>
<path d="M431.459 53.5159H480.973C486.345 53.5159 490.701 57.8716 490.701 63.2444C490.701 68.6172 486.345 72.9728 480.973 72.9729H431.459C426.086 72.9729 421.73 68.6172 421.73 63.2444C421.73 57.8715 426.086 53.5159 431.459 53.5159Z" fill="white" fill-opacity="0.3"/>
<path d="M431.459 53.5159H480.973C486.345 53.5159 490.701 57.8716 490.701 63.2444C490.701 68.6172 486.345 72.9728 480.973 72.9729H431.459C426.086 72.9729 421.73 68.6172 421.73 63.2444C421.73 57.8715 426.086 53.5159 431.459 53.5159Z" stroke="#D1D1D1" stroke-width="0.486421"/>
<path d="M53.4932 90.9702H492.211C496.375 90.9704 499.75 94.3464 499.75 98.5103V118.453C499.75 122.617 496.375 125.993 492.211 125.993H53.4932C49.3292 125.993 45.9531 122.617 45.9531 118.453V98.5103C45.9531 94.3463 49.3292 90.9702 53.4932 90.9702Z" stroke="#E7E7E7" stroke-width="0.486421"/>
<path d="M53.4932 104.169C53.4932 101.71 55.4868 99.7159 57.9461 99.7159H162.259C164.718 99.7159 166.712 101.71 166.712 104.169C166.712 106.628 164.718 108.622 162.259 108.622H57.9461C55.4868 108.622 53.4932 106.628 53.4932 104.169Z" fill="#E7E7E7"/>
<path d="M53.4932 113.907C53.4932 112.063 54.9884 110.568 56.8329 110.568H129.975C131.819 110.568 133.315 112.063 133.315 113.907C133.315 115.752 131.819 117.247 129.975 117.247H56.8329C54.9884 117.247 53.4932 115.752 53.4932 113.907Z" fill="#E7E7E7"/>
<rect x="177.934" y="101.428" width="28.8075" height="14.1062" rx="3.64816" fill="#F6F6F6"/>
<rect x="177.934" y="101.428" width="28.8075" height="14.1062" rx="3.64816" stroke="#E7E7E7" stroke-width="0.486421"/>
<path d="M186.446 106.657H189.365" stroke="#5D5D5D" stroke-width="0.583705" stroke-linecap="round" stroke-linejoin="round"/>
<path d="M186.446 108.116H187.906" stroke="#5D5D5D" stroke-width="0.583705" stroke-linecap="round" stroke-linejoin="round"/>
<path d="M188.27 111.947V111.765C188.27 110.733 188.27 110.217 188.59 109.896C188.911 109.576 189.427 109.576 190.459 109.576H190.641M190.823 108.971V107.752C190.823 106.376 190.823 105.688 190.396 105.261C189.969 104.833 189.281 104.833 187.905 104.833C186.529 104.833 185.841 104.833 185.414 105.261C184.986 105.688 184.986 106.376 184.986 107.752V109.409C184.986 110.593 184.986 111.185 185.31 111.586C185.375 111.667 185.449 111.741 185.53 111.806C185.931 112.129 186.523 112.129 187.706 112.129C187.964 112.129 188.092 112.129 188.21 112.088C188.235 112.079 188.259 112.069 188.282 112.058C188.395 112.004 188.486 111.913 188.668 111.731L190.396 110.003C190.607 109.792 190.712 109.687 190.768 109.553C190.823 109.419 190.823 109.27 190.823 108.971Z" stroke="#5D5D5D" stroke-width="0.583705" stroke-linecap="round" stroke-linejoin="round"/>
<path d="M200.417 106.055V106.523L198.659 110.481H198.026L199.803 106.586H197.4V106.055H200.417Z" fill="#3D3D3D"/>
<rect x="215.01" y="101.806" width="46.21" height="13.3506" rx="3.64816" fill="#FACA15" fill-opacity="0.35"/>
<rect x="215.01" y="101.806" width="46.21" height="13.3506" rx="3.64816" stroke="#F6F6F6" stroke-width="0.486421"/>
<rect x="272.441" y="106.049" width="70.1005" height="4.86421" rx="2.4321" fill="#E3E3F1"/>
<rect x="273.414" y="107.022" width="35.5079" height="2.91852" rx="1.45926" fill="#0A65FC"/>
<path d="M304.544 108.482C304.544 109.287 305.197 109.941 306.003 109.941H307.462C308.268 109.941 308.922 109.287 308.922 108.482C308.922 107.676 308.268 107.022 307.462 107.022H306.003C305.197 107.022 304.544 107.676 304.544 108.482Z" fill="#0A65FC"/>
<path d="M355.791 105.715V106.218L353.898 110.481H353.217L355.131 106.287H352.543V105.715H355.791ZM359.473 105.715V106.287H357.171V107.71C357.267 107.578 357.405 107.471 357.587 107.39C357.768 107.308 357.975 107.267 358.206 107.267C358.501 107.267 358.749 107.317 358.949 107.417C359.148 107.517 359.309 107.646 359.432 107.805C359.559 107.964 359.65 108.137 359.704 108.323C359.763 108.504 359.793 108.679 359.793 108.847C359.793 109.156 359.727 109.437 359.596 109.691C359.468 109.946 359.278 110.15 359.023 110.304C358.769 110.454 358.461 110.529 358.097 110.529C357.77 110.529 357.484 110.472 357.239 110.359C356.999 110.241 356.806 110.082 356.66 109.882C356.52 109.678 356.429 109.446 356.388 109.188H357.049C357.108 109.424 357.228 109.61 357.41 109.746C357.596 109.878 357.827 109.943 358.104 109.943C358.331 109.943 358.52 109.898 358.669 109.807C358.819 109.716 358.928 109.592 358.996 109.433C359.069 109.269 359.105 109.079 359.105 108.861C359.105 108.543 359.019 108.295 358.846 108.118C358.674 107.941 358.429 107.853 358.111 107.853C357.87 107.853 357.666 107.91 357.498 108.023C357.33 108.137 357.21 108.291 357.137 108.486H356.497V105.715H359.473ZM360.427 106.702C360.427 106.375 360.522 106.121 360.713 105.939C360.903 105.758 361.144 105.667 361.434 105.667C361.721 105.667 361.959 105.758 362.15 105.939C362.345 106.121 362.442 106.375 362.442 106.702C362.442 107.029 362.345 107.285 362.15 107.471C361.959 107.653 361.721 107.744 361.434 107.744C361.144 107.744 360.903 107.653 360.713 107.471C360.522 107.285 360.427 107.029 360.427 106.702ZM361.434 106.082C361.289 106.082 361.173 106.132 361.087 106.232C361.001 106.332 360.958 106.489 360.958 106.702C360.958 106.911 361.001 107.067 361.087 107.172C361.173 107.276 361.289 107.328 361.434 107.328C361.575 107.328 361.689 107.276 361.775 107.172C361.861 107.067 361.904 106.911 361.904 106.702C361.904 106.489 361.861 106.332 361.775 106.232C361.689 106.132 361.575 106.082 361.434 106.082ZM363.798 105.715H364.465L361.721 110.481H361.053L363.798 105.715ZM363.089 109.494C363.089 109.167 363.185 108.913 363.375 108.731C363.571 108.545 363.811 108.452 364.097 108.452C364.383 108.452 364.622 108.545 364.812 108.731C365.007 108.913 365.105 109.167 365.105 109.494C365.105 109.816 365.007 110.071 364.812 110.257C364.622 110.438 364.383 110.529 364.097 110.529C363.811 110.529 363.571 110.438 363.375 110.257C363.185 110.071 363.089 109.816 363.089 109.494ZM364.097 108.874C363.952 108.874 363.836 108.924 363.75 109.024C363.664 109.124 363.62 109.281 363.62 109.494C363.62 109.703 363.664 109.857 363.75 109.957C363.836 110.057 363.952 110.107 364.097 110.107C364.233 110.107 364.345 110.057 364.431 109.957C364.522 109.857 364.567 109.703 364.567 109.494C364.567 109.281 364.522 109.124 364.431 109.024C364.345 108.924 364.233 108.874 364.097 108.874Z" fill="#3D3D3D"/>
<path d="M377.248 108.481C377.248 102.974 381.712 98.5098 387.22 98.5098H403.733C409.24 98.5098 413.705 102.974 413.705 108.481C413.705 113.989 409.24 118.453 403.733 118.453H387.22C381.712 118.453 377.248 113.989 377.248 108.481Z" fill="#0A65FC"/>
<path d="M431.459 98.7529H480.973C486.345 98.753 490.701 103.109 490.701 108.481C490.701 113.854 486.345 118.21 480.973 118.21H431.459C426.086 118.21 421.73 113.854 421.73 108.481C421.73 103.109 426.086 98.7529 431.459 98.7529Z" fill="white" fill-opacity="0.3"/>
<path d="M431.459 98.7529H480.973C486.345 98.753 490.701 103.109 490.701 108.481C490.701 113.854 486.345 118.21 480.973 118.21H431.459C426.086 118.21 421.73 113.854 421.73 108.481C421.73 103.109 426.086 98.7529 431.459 98.7529Z" stroke="#D1D1D1" stroke-width="0.486421"/>
<path d="M53.4932 136.207H492.211C496.375 136.208 499.75 139.584 499.75 143.747V163.69C499.75 167.854 496.375 171.23 492.211 171.23H53.4932C49.3292 171.23 45.9531 167.854 45.9531 163.69V143.747C45.9531 139.583 49.3292 136.207 53.4932 136.207Z" stroke="#E7E7E7" stroke-width="0.486421"/>
<path d="M53.4932 149.406C53.4932 146.947 55.4868 144.953 57.9461 144.953H162.259C164.718 144.953 166.712 146.947 166.712 149.406C166.712 151.865 164.718 153.859 162.259 153.859H57.9461C55.4868 153.859 53.4932 151.865 53.4932 149.406Z" fill="#E7E7E7"/>
<path d="M53.4932 159.144C53.4932 157.3 54.9884 155.805 56.8329 155.805H129.975C131.819 155.805 133.315 157.3 133.315 159.144C133.315 160.989 131.819 162.484 129.975 162.484H56.8329C54.9884 162.484 53.4932 160.989 53.4932 159.144Z" fill="#E7E7E7"/>
<rect x="177.934" y="146.665" width="28.8075" height="14.1062" rx="3.64816" fill="#F6F6F6"/>
<rect x="177.934" y="146.665" width="28.8075" height="14.1062" rx="3.64816" stroke="#E7E7E7" stroke-width="0.486421"/>
<path d="M186.446 151.895H189.365" stroke="#5D5D5D" stroke-width="0.583705" stroke-linecap="round" stroke-linejoin="round"/>
<path d="M186.446 153.354H187.906" stroke="#5D5D5D" stroke-width="0.583705" stroke-linecap="round" stroke-linejoin="round"/>
<path d="M188.27 157.184V157.002C188.27 155.97 188.27 155.454 188.59 155.134C188.911 154.813 189.427 154.813 190.459 154.813H190.641M190.823 154.209V152.989C190.823 151.613 190.823 150.925 190.396 150.498C189.969 150.07 189.281 150.07 187.905 150.07C186.529 150.07 185.841 150.07 185.414 150.498C184.986 150.925 184.986 151.613 184.986 152.989V154.647C184.986 155.831 184.986 156.422 185.31 156.823C185.375 156.904 185.449 156.978 185.53 157.043C185.931 157.367 186.523 157.367 187.706 157.367C187.964 157.367 188.092 157.367 188.21 157.325C188.235 157.317 188.259 157.307 188.282 157.295C188.395 157.241 188.486 157.15 188.668 156.968L190.396 155.24C190.607 155.03 190.712 154.924 190.768 154.79C190.823 154.656 190.823 154.507 190.823 154.209Z" stroke="#5D5D5D" stroke-width="0.583705" stroke-linecap="round" stroke-linejoin="round"/>
<path d="M200.417 151.292V151.76L198.659 155.719H198.026L199.803 151.823H197.4V151.292H200.417Z" fill="#3D3D3D"/>
<rect x="215.01" y="147.043" width="46.21" height="13.3506" rx="3.64816" fill="#31C48D" fill-opacity="0.35"/>
<rect x="215.01" y="147.043" width="46.21" height="13.3506" rx="3.64816" stroke="#F6F6F6" stroke-width="0.486421"/>
<rect x="272.441" y="151.286" width="70.1005" height="4.86421" rx="2.4321" fill="#E3E3F1"/>
<rect x="273.414" y="152.259" width="46.6402" height="2.91852" rx="1.45926" fill="#0A65FC"/>
<path d="M315.677 153.719C315.677 154.525 316.33 155.178 317.136 155.178H318.595C319.401 155.178 320.055 154.525 320.055 153.719C320.055 152.913 319.401 152.259 318.595 152.259H317.136C316.33 152.259 315.677 152.913 315.677 153.719Z" fill="#0A65FC"/>
<path d="M355.791 150.952V151.456L353.898 155.719H353.217L355.131 151.524H352.543V150.952H355.791ZM359.473 150.952V151.524H357.171V152.947C357.267 152.815 357.405 152.709 357.587 152.627C357.768 152.545 357.975 152.504 358.206 152.504C358.501 152.504 358.749 152.554 358.949 152.654C359.148 152.754 359.309 152.883 359.432 153.042C359.559 153.201 359.65 153.374 359.704 153.56C359.763 153.741 359.793 153.916 359.793 154.084C359.793 154.393 359.727 154.674 359.596 154.929C359.468 155.183 359.278 155.387 359.023 155.542C358.769 155.691 358.461 155.766 358.097 155.766C357.77 155.766 357.484 155.71 357.239 155.596C356.999 155.478 356.806 155.319 356.66 155.119C356.52 154.915 356.429 154.684 356.388 154.425H357.049C357.108 154.661 357.228 154.847 357.41 154.983C357.596 155.115 357.827 155.181 358.104 155.181C358.331 155.181 358.52 155.135 358.669 155.044C358.819 154.954 358.928 154.829 358.996 154.67C359.069 154.506 359.105 154.316 359.105 154.098C359.105 153.78 359.019 153.533 358.846 153.356C358.674 153.179 358.429 153.09 358.111 153.09C357.87 153.09 357.666 153.147 357.498 153.26C357.33 153.374 357.21 153.528 357.137 153.723H356.497V150.952H359.473ZM360.427 151.939C360.427 151.612 360.522 151.358 360.713 151.176C360.903 150.995 361.144 150.904 361.434 150.904C361.721 150.904 361.959 150.995 362.15 151.176C362.345 151.358 362.442 151.612 362.442 151.939C362.442 152.266 362.345 152.523 362.15 152.709C361.959 152.89 361.721 152.981 361.434 152.981C361.144 152.981 360.903 152.89 360.713 152.709C360.522 152.523 360.427 152.266 360.427 151.939ZM361.434 151.319C361.289 151.319 361.173 151.369 361.087 151.469C361.001 151.569 360.958 151.726 360.958 151.939C360.958 152.148 361.001 152.305 361.087 152.409C361.173 152.513 361.289 152.566 361.434 152.566C361.575 152.566 361.689 152.513 361.775 152.409C361.861 152.305 361.904 152.148 361.904 151.939C361.904 151.726 361.861 151.569 361.775 151.469C361.689 151.369 361.575 151.319 361.434 151.319ZM363.798 150.952H364.465L361.721 155.719H361.053L363.798 150.952ZM363.089 154.731C363.089 154.404 363.185 154.15 363.375 153.968C363.571 153.782 363.811 153.689 364.097 153.689C364.383 153.689 364.622 153.782 364.812 153.968C365.007 154.15 365.105 154.404 365.105 154.731C365.105 155.054 365.007 155.308 364.812 155.494C364.622 155.675 364.383 155.766 364.097 155.766C363.811 155.766 363.571 155.675 363.375 155.494C363.185 155.308 363.089 155.054 363.089 154.731ZM364.097 154.111C363.952 154.111 363.836 154.161 363.75 154.261C363.664 154.361 363.62 154.518 363.62 154.731C363.62 154.94 363.664 155.094 363.75 155.194C363.836 155.294 363.952 155.344 364.097 155.344C364.233 155.344 364.345 155.294 364.431 155.194C364.522 155.094 364.567 154.94 364.567 154.731C364.567 154.518 364.522 154.361 364.431 154.261C364.345 154.161 364.233 154.111 364.097 154.111Z" fill="#3D3D3D"/>
<path d="M377.248 153.719C377.248 148.211 381.712 143.747 387.22 143.747H403.733C409.24 143.747 413.705 148.211 413.705 153.719C413.705 159.226 409.24 163.69 403.733 163.69H387.22C381.712 163.69 377.248 159.226 377.248 153.719Z" fill="#0A65FC"/>
<path d="M431.459 143.99H480.973C486.345 143.99 490.701 148.346 490.701 153.719C490.701 159.091 486.345 163.447 480.973 163.447H431.459C426.086 163.447 421.73 159.091 421.73 153.719C421.73 148.346 426.086 143.99 431.459 143.99Z" fill="white" fill-opacity="0.3"/>
<path d="M431.459 143.99H480.973C486.345 143.99 490.701 148.346 490.701 153.719C490.701 159.091 486.345 163.447 480.973 163.447H431.459C426.086 163.447 421.73 159.091 421.73 153.719C421.73 148.346 426.086 143.99 431.459 143.99Z" stroke="#D1D1D1" stroke-width="0.486421"/>
<path d="M53.4932 181.445H492.211C496.375 181.445 499.75 184.821 499.75 188.985V208.927C499.75 213.091 496.375 216.467 492.211 216.467H53.4932C49.3292 216.467 45.9531 213.091 45.9531 208.927V188.985C45.9531 184.821 49.3292 181.445 53.4932 181.445Z" stroke="#E7E7E7" stroke-width="0.486421"/>
<path d="M53.4932 194.643C53.4932 192.184 55.4868 190.19 57.9461 190.19H162.259C164.718 190.19 166.712 192.184 166.712 194.643C166.712 197.103 164.718 199.096 162.259 199.096H57.9461C55.4868 199.096 53.4932 197.103 53.4932 194.643Z" fill="#E7E7E7"/>
<path d="M53.4932 204.382C53.4932 202.537 54.9884 201.042 56.8329 201.042H129.975C131.819 201.042 133.315 202.537 133.315 204.382C133.315 206.226 131.819 207.721 129.975 207.721H56.8329C54.9884 207.721 53.4932 206.226 53.4932 204.382Z" fill="#E7E7E7"/>
<rect x="177.934" y="191.903" width="28.8075" height="14.1062" rx="3.64816" fill="#F6F6F6"/>
<rect x="177.934" y="191.903" width="28.8075" height="14.1062" rx="3.64816" stroke="#E7E7E7" stroke-width="0.486421"/>
<path d="M186.446 197.132H189.365" stroke="#5D5D5D" stroke-width="0.583705" stroke-linecap="round" stroke-linejoin="round"/>
<path d="M186.446 198.591H187.906" stroke="#5D5D5D" stroke-width="0.583705" stroke-linecap="round" stroke-linejoin="round"/>
<path d="M188.27 202.421V202.239C188.27 201.207 188.27 200.691 188.59 200.371C188.911 200.05 189.427 200.05 190.459 200.05H190.641M190.823 199.446V198.226C190.823 196.85 190.823 196.162 190.396 195.735C189.969 195.307 189.281 195.307 187.905 195.307C186.529 195.307 185.841 195.307 185.414 195.735C184.986 196.162 184.986 196.85 184.986 198.226V199.884C184.986 201.068 184.986 201.66 185.31 202.06C185.375 202.141 185.449 202.215 185.53 202.281C185.931 202.604 186.523 202.604 187.706 202.604C187.964 202.604 188.092 202.604 188.21 202.562C188.235 202.554 188.259 202.544 188.282 202.532C188.395 202.478 188.486 202.387 188.668 202.205L190.396 200.478C190.607 200.267 190.712 200.161 190.768 200.027C190.823 199.893 190.823 199.744 190.823 199.446Z" stroke="#5D5D5D" stroke-width="0.583705" stroke-linecap="round" stroke-linejoin="round"/>
<path d="M200.417 196.529V196.997L198.659 200.956H198.026L199.803 197.06H197.4V196.529H200.417Z" fill="#3D3D3D"/>
<rect x="215.01" y="192.28" width="46.21" height="13.3506" rx="3.64816" fill="#F05252" fill-opacity="0.47"/>
<rect x="215.01" y="192.28" width="46.21" height="13.3506" rx="3.64816" stroke="#F6F6F6" stroke-width="0.486421"/>
<rect x="272.441" y="196.524" width="70.1005" height="4.86421" rx="2.4321" fill="#E3E3F1"/>
<rect x="273.414" y="197.497" width="16.5828" height="2.91852" rx="1.45926" fill="#0A65FC"/>
<path d="M285.619 198.956C285.619 199.762 286.272 200.415 287.078 200.415H288.538C289.344 200.415 289.997 199.762 289.997 198.956C289.997 198.15 289.344 197.497 288.538 197.497H287.078C286.272 197.497 285.619 198.15 285.619 198.956Z" fill="#0A65FC"/>
<path d="M355.791 196.189V196.693L353.898 200.956H353.217L355.131 196.761H352.543V196.189H355.791ZM359.473 196.189V196.761H357.171V198.184C357.267 198.053 357.405 197.946 357.587 197.864C357.768 197.782 357.975 197.742 358.206 197.742C358.501 197.742 358.749 197.791 358.949 197.891C359.148 197.991 359.309 198.121 359.432 198.28C359.559 198.438 359.65 198.611 359.704 198.797C359.763 198.979 359.793 199.153 359.793 199.321C359.793 199.63 359.727 199.912 359.596 200.166C359.468 200.42 359.278 200.624 359.023 200.779C358.769 200.929 358.461 201.003 358.097 201.003C357.77 201.003 357.484 200.947 357.239 200.833C356.999 200.715 356.806 200.556 356.66 200.357C356.52 200.152 356.429 199.921 356.388 199.662H357.049C357.108 199.898 357.228 200.084 357.41 200.22C357.596 200.352 357.827 200.418 358.104 200.418C358.331 200.418 358.52 200.372 358.669 200.282C358.819 200.191 358.928 200.066 358.996 199.907C359.069 199.744 359.105 199.553 359.105 199.335C359.105 199.017 359.019 198.77 358.846 198.593C358.674 198.416 358.429 198.327 358.111 198.327C357.87 198.327 357.666 198.384 357.498 198.497C357.33 198.611 357.21 198.765 357.137 198.961H356.497V196.189H359.473ZM360.427 197.176C360.427 196.849 360.522 196.595 360.713 196.414C360.903 196.232 361.144 196.141 361.434 196.141C361.721 196.141 361.959 196.232 362.15 196.414C362.345 196.595 362.442 196.849 362.442 197.176C362.442 197.503 362.345 197.76 362.15 197.946C361.959 198.127 361.721 198.218 361.434 198.218C361.144 198.218 360.903 198.127 360.713 197.946C360.522 197.76 360.427 197.503 360.427 197.176ZM361.434 196.557C361.289 196.557 361.173 196.607 361.087 196.706C361.001 196.806 360.958 196.963 360.958 197.176C360.958 197.385 361.001 197.542 361.087 197.646C361.173 197.751 361.289 197.803 361.434 197.803C361.575 197.803 361.689 197.751 361.775 197.646C361.861 197.542 361.904 197.385 361.904 197.176C361.904 196.963 361.861 196.806 361.775 196.706C361.689 196.607 361.575 196.557 361.434 196.557ZM363.798 196.189H364.465L361.721 200.956H361.053L363.798 196.189ZM363.089 199.968C363.089 199.642 363.185 199.387 363.375 199.206C363.571 199.02 363.811 198.926 364.097 198.926C364.383 198.926 364.622 199.02 364.812 199.206C365.007 199.387 365.105 199.642 365.105 199.968C365.105 200.291 365.007 200.545 364.812 200.731C364.622 200.913 364.383 201.003 364.097 201.003C363.811 201.003 363.571 200.913 363.375 200.731C363.185 200.545 363.089 200.291 363.089 199.968ZM364.097 199.349C363.952 199.349 363.836 199.399 363.75 199.498C363.664 199.598 363.62 199.755 363.62 199.968C363.62 200.177 363.664 200.332 363.75 200.431C363.836 200.531 363.952 200.581 364.097 200.581C364.233 200.581 364.345 200.531 364.431 200.431C364.522 200.332 364.567 200.177 364.567 199.968C364.567 199.755 364.522 199.598 364.431 199.498C364.345 199.399 364.233 199.349 364.097 199.349Z" fill="#3D3D3D"/>
<path d="M377.248 198.956C377.248 193.449 381.712 188.984 387.22 188.984H403.733C409.24 188.984 413.705 193.449 413.705 198.956C413.705 204.463 409.24 208.927 403.733 208.927H387.22C381.712 208.927 377.248 204.463 377.248 198.956Z" fill="#0A65FC"/>
<path d="M431.459 189.227H480.973C486.345 189.227 490.701 193.583 490.701 198.956C490.701 204.329 486.345 208.684 480.973 208.684H431.459C426.086 208.684 421.73 204.329 421.73 198.956C421.73 193.583 426.086 189.227 431.459 189.227Z" fill="white" fill-opacity="0.3"/>
<path d="M431.459 189.227H480.973C486.345 189.227 490.701 193.583 490.701 198.956C490.701 204.329 486.345 208.684 480.973 208.684H431.459C426.086 208.684 421.73 204.329 421.73 198.956C421.73 193.583 426.086 189.227 431.459 189.227Z" stroke="#D1D1D1" stroke-width="0.486421"/>
</g>
</g>
<defs>
<filter id="filter0_f_2105_5322" x="102.689" y="-74.72" width="646" height="646" filterUnits="userSpaceOnUse" color-interpolation-filters="sRGB">
<feFlood flood-opacity="0" result="BackgroundImageFix"/>
<feBlend mode="normal" in="SourceGraphic" in2="BackgroundImageFix" result="shape"/>
<feGaussianBlur stdDeviation="100" result="effect1_foregroundBlur_2105_5322"/>
</filter>
<filter id="filter1_f_2105_5322" x="-340" y="-399.22" width="646" height="646" filterUnits="userSpaceOnUse" color-interpolation-filters="sRGB">
<feFlood flood-opacity="0" result="BackgroundImageFix"/>
<feBlend mode="normal" in="SourceGraphic" in2="BackgroundImageFix" result="shape"/>
<feGaussianBlur stdDeviation="100" result="effect1_foregroundBlur_2105_5322"/>
</filter>
<linearGradient id="paint0_linear_2105_5322" x1="212" y1="0.780029" x2="212" y2="250.78" gradientUnits="userSpaceOnUse">
<stop offset="0.7"/>
<stop offset="1" stop-opacity="0"/>
</linearGradient>
<clipPath id="clip0_2105_5322">
<path d="M0 20.78C0 9.73433 8.95431 0.780029 20 0.780029H404C415.046 0.780029 424 9.73433 424 20.78V230.78C424 241.826 415.046 250.78 404 250.78H20C8.9543 250.78 0 241.826 0 230.78V20.78Z" fill="white"/>
</clipPath>
<clipPath id="clip1_2105_5322">
<rect width="424" height="330" fill="white" transform="translate(0 -79.22)"/>
</clipPath>
</defs>
</svg>
